<?xml version="1.0" encoding="UTF-8"?> <svg xmlns="http://www.w3.org/2000/svg" viewBox="0 0 510.00 26.83" data-guides="{&quot;vertical&quot;:[],&quot;horizontal&quot;:[]}"><defs></defs><path fill="#2E2E2D" stroke="none" fill-opacity="1" stroke-width="1" stroke-opacity="1" id="tSvg14a723ab423" title="Path 1" d="M18.4523 17.9055C18.4523 19.1333 18.4523 20.3609 18.4523 21.5885C13.4054 21.5885 8.3583 21.5885 3.3113 21.5885C3.3113 20.3609 3.3113 19.1333 3.3113 17.9055C8.3583 17.9055 13.4054 17.9055 18.4523 17.9055ZM4.8021 17.9055C4.8021 20.8723 4.8021 23.8392 4.8021 26.806C3.326 26.806 1.8498 26.806 0.3737 26.806C0.2763 23.8392 0.1789 20.8723 0.0814 17.9055C1.655 17.9055 3.2285 17.9055 4.8021 17.9055ZM21.7699 17.9055C21.6189 20.8772 21.4679 23.849 21.3168 26.8207C19.8797 26.8207 18.4426 26.8207 17.0054 26.8207C17.0054 23.849 17.0054 20.8772 17.0054 17.9055C18.5936 17.9055 20.1818 17.9055 21.7699 17.9055ZM16.1286 0.3093C16.1286 1.5418 16.1286 2.7743 16.1286 4.0068C12.6405 4.0068 9.1524 4.0068 5.6643 4.0068C5.6643 2.7743 5.6643 1.5418 5.6643 0.3093C9.1524 0.3093 12.6405 0.3093 16.1286 0.3093ZM19.417 0.3093C19.417 7.4024 19.417 14.4954 19.417 21.5885C17.8385 21.5885 16.2601 21.5885 14.6817 21.5885C14.6817 14.4954 14.6817 7.4024 14.6817 0.3093C16.2601 0.3093 17.8385 0.3093 19.417 0.3093ZM5.2259 0.3093C6.8091 0.3093 8.3924 0.3093 9.9757 0.3093C9.7759 3.2079 9.5763 6.1065 9.3765 9.0051C9.2791 10.4666 9.1135 11.7479 8.8796 12.8488C8.6555 13.9401 8.3875 14.8949 8.0758 15.7133C7.764 16.5317 7.4181 17.2382 7.0381 17.8325C6.6679 18.4268 6.2733 18.9481 5.8543 19.3962C5.4451 19.8347 5.0359 20.2294 4.6267 20.5801C4.2174 20.9211 3.818 21.2572 3.4283 21.5885C2.488 21.5885 1.5478 21.5885 0.6076 21.5885C0.6076 20.3609 0.6076 19.1333 0.6076 17.9055C0.9438 17.9055 1.2798 17.9055 1.616 17.9055C1.9083 17.6815 2.2055 17.3746 2.5075 16.9848C2.8193 16.5951 3.1165 16.069 3.399 15.4064C3.6816 14.7439 3.93 13.8913 4.1444 12.8488C4.3587 11.8063 4.5146 10.5251 4.6121 9.0051C4.8167 6.1065 5.0213 3.2079 5.2259 0.3093Z"></path><path fill="#2E2E2D" stroke="none" fill-opacity="1" stroke-width="1" stroke-opacity="1" id="tSvg15e9fa67153" title="Path 2" d="M38.3577 0.3093C38.3577 1.5418 38.3577 2.7743 38.3577 4.0068C34.7626 4.0068 31.1673 4.0068 27.5721 4.0068C27.5721 2.7743 27.5721 1.5418 27.5721 0.3093C31.1673 0.3093 34.7626 0.3093 38.3577 0.3093ZM41.6606 0.3093C41.6606 7.4024 41.6606 14.4954 41.6606 21.5885C40.0725 21.5885 38.4844 21.5885 36.8963 21.5885C36.8963 14.4954 36.8963 7.4024 36.8963 0.3093C38.4844 0.3093 40.0725 0.3093 41.6606 0.3093ZM27.1189 0.3093C28.6973 0.3093 30.2758 0.3093 31.8542 0.3093C31.674 3.8947 31.4937 7.4803 31.3135 11.0658C31.2257 12.6734 31.0651 14.0716 30.8311 15.2603C30.6071 16.4393 30.2953 17.4379 29.8957 18.2563C29.5062 19.0651 29.0335 19.7178 28.4782 20.2147C27.9228 20.7019 27.2748 21.0526 26.5343 21.267C25.7939 21.4814 24.9511 21.5885 24.006 21.5885C23.6212 21.5885 23.2363 21.5885 22.8514 21.5885C22.8514 20.3609 22.8514 19.1333 22.8514 17.9055C23.0365 17.8861 23.2217 17.8666 23.4068 17.8472C23.8745 17.8082 24.2788 17.6864 24.6198 17.4818C24.9706 17.2772 25.2727 16.9751 25.5258 16.5756C25.7792 16.1664 25.9888 15.6451 26.1544 15.0119C26.3297 14.3785 26.4662 13.6087 26.5637 12.7027C26.6707 11.7966 26.7438 10.7345 26.7829 9.5166C26.8949 6.4475 27.0069 3.3784 27.1189 0.3093Z"></path><path fill="#2E2E2D" stroke="none" fill-opacity="1" stroke-width="1" stroke-opacity="1" id="tSvgb1917cbc8d" title="Path 3" d="M56.3633 13.9888C54.4536 13.9888 52.5439 13.9888 50.6342 13.9888C50.1374 13.7841 49.6406 13.5796 49.1437 13.375C47.4386 12.8391 46.1378 12.0402 45.2414 10.9781C44.3449 9.9064 43.8968 8.5472 43.8968 6.9006C43.8968 5.4488 44.2182 4.2358 44.8615 3.2615C45.5142 2.2871 46.4349 1.5515 47.6237 1.0546C48.8124 0.5578 50.2202 0.3093 51.8474 0.3093C54.3708 0.3093 56.8943 0.3093 59.4178 0.3093C59.4178 7.4024 59.4178 14.4954 59.4178 21.5885C57.8248 21.5885 56.2318 21.5885 54.6387 21.5885C54.6387 15.7279 54.6387 9.8674 54.6387 4.0068C53.7083 4.0068 52.7778 4.0068 51.8474 4.0068C50.7365 4.0068 49.9231 4.2894 49.4066 4.8545C48.9 5.4196 48.6468 6.2283 48.6468 7.2806C48.6468 8.06 48.7635 8.6933 48.9975 9.1805C49.241 9.6579 49.5967 10.0087 50.0643 10.2328C50.5417 10.4471 51.1313 10.5543 51.8327 10.5543C53.3381 10.5543 54.8435 10.5543 56.3488 10.5543C56.3536 11.6991 56.3585 12.844 56.3633 13.9888ZM52.2857 12.1474C50.7463 15.2943 49.2069 18.4414 47.6676 21.5885C45.9429 21.5885 44.2183 21.5885 42.4938 21.5885C44.0283 18.4414 45.563 15.2943 47.0976 12.1474C48.827 12.1474 50.5563 12.1474 52.2857 12.1474Z"></path><path fill="#9ebe3d" stroke="none" fill-opacity="1" stroke-width="1" stroke-opacity="1" id="tSvgaa752ed73d" title="Path 4" d="M79.2064 14.4565C80.6728 14.437 82.1392 14.4175 83.6055 14.398C83.4983 15.9082 83.0939 17.2333 82.3926 18.3732C81.7006 19.5034 80.7703 20.3804 79.601 21.0039C78.4316 21.6275 77.0872 21.9198 75.5672 21.8808C74.2618 21.8516 73.185 21.569 72.3375 21.0331C71.4897 20.4876 70.837 19.7714 70.379 18.8848C69.9307 17.9883 69.6435 16.9994 69.5168 15.918C69.3998 14.8268 69.4145 13.7208 69.5607 12.6004C69.7311 11.4994 69.9016 10.3984 70.0722 9.2975C70.2475 8.1184 70.5446 6.9688 70.9637 5.8483C71.3826 4.7279 71.9429 3.7242 72.6442 2.8376C73.3556 1.9413 74.2179 1.2397 75.2311 0.733C76.2445 0.2167 77.4135 -0.0269 78.7387 0.0023C80.2782 0.0316 81.5106 0.3872 82.4362 1.0692C83.3618 1.7513 84.0342 2.6623 84.453 3.8022C84.8721 4.9325 85.0816 6.204 85.0816 7.6167C83.5714 7.607 82.0613 7.5972 80.5511 7.5875C80.6094 6.9444 80.6144 6.3404 80.5655 5.7752C80.5266 5.2003 80.3513 4.7327 80.0395 4.3722C79.7276 4.0019 79.182 3.8022 78.4025 3.7729C77.6622 3.7437 77.0581 3.8996 76.5905 4.2407C76.1325 4.5817 75.7718 5.0396 75.5089 5.6145C75.2458 6.1796 75.051 6.7885 74.9243 7.4414C74.7976 8.0843 74.6953 8.6933 74.6172 9.2682C74.4613 10.3838 74.3054 11.4994 74.1495 12.615C74.0814 13.0729 74.0083 13.6136 73.9303 14.2372C73.8525 14.8511 73.8331 15.4503 73.872 16.0349C73.9206 16.6097 74.0911 17.0969 74.3835 17.4964C74.6856 17.8861 75.1825 18.1004 75.8743 18.1394C76.6635 18.1686 77.2871 18.0225 77.745 17.701C78.2127 17.3697 78.5536 16.9215 78.7679 16.3564C78.9824 15.7815 79.1283 15.1482 79.2064 14.4565Z"></path><path fill="#9ebe3d" stroke="none" fill-opacity="1" stroke-width="1" stroke-opacity="1" id="tSvg1855421d78" title="Path 5" d="M91.6874 13.5212C93.7286 9.1172 95.7698 4.7132 97.811 0.3093C99.4674 0.3093 101.1238 0.3093 102.78 0.3093C99.9302 5.975 97.0803 11.6407 94.2305 17.3064C93.9383 17.9201 93.6117 18.5048 93.2513 19.0602C92.9006 19.6058 92.5011 20.0978 92.0528 20.5363C91.6046 20.9649 91.0933 21.306 90.5183 21.5593C89.9531 21.8126 89.3054 21.9442 88.5745 21.9539C88.3308 21.9637 88.0875 21.9588 87.8438 21.9393C87.61 21.9296 87.3663 21.9198 87.1129 21.9101C87.2006 20.6386 87.2883 19.367 87.3761 18.0955C87.5125 18.115 87.649 18.1394 87.7854 18.1686C87.9316 18.1881 88.0777 18.193 88.2239 18.1832C88.6718 18.193 89.0422 18.1101 89.3346 17.9348C89.6367 17.7595 89.885 17.5207 90.0798 17.2187C90.2746 16.9166 90.45 16.5707 90.6059 16.1811C90.9664 15.2944 91.3269 14.4078 91.6874 13.5212ZM92.2721 0.3093C92.7738 3.6219 93.2756 6.9347 93.7774 10.2474C93.9138 12.0158 94.0502 13.7841 94.1866 15.5526C93.1392 15.5623 92.0918 15.572 91.0444 15.5818C89.9093 10.491 88.7743 5.4001 87.6392 0.3093C89.1835 0.3093 90.7278 0.3093 92.2721 0.3093Z"></path><path fill="#9ebe3d" stroke="none" fill-opacity="1" stroke-width="1" stroke-opacity="1" id="tSvg3fa6ae287a" title="Path 6" d="M116.4598 0.3093C116.2406 1.5662 116.0213 2.823 115.8021 4.0799C113.3809 4.0799 110.9598 4.0799 108.5385 4.0799C107.5203 9.9161 106.5021 15.7523 105.4838 21.5885C103.9737 21.5885 102.4635 21.5885 100.9533 21.5885C102.181 14.4954 103.4086 7.4024 104.6363 0.3093C108.5774 0.3093 112.5187 0.3093 116.4598 0.3093Z"></path><path fill="#9ebe3d" stroke="none" fill-opacity="1" stroke-width="1" stroke-opacity="1" id="tSvg824abd206" title="Path 7" d="M123.8256 14.2519C122.3495 14.247 120.8734 14.2421 119.3973 14.2372C119.6166 12.9804 119.8357 11.7235 120.055 10.4666C121.38 10.4764 122.7051 10.4861 124.0302 10.4959C124.644 10.4861 125.1556 10.34 125.5648 10.0574C125.9836 9.7651 126.3101 9.3851 126.5441 8.9175C126.7876 8.44 126.9484 7.9187 127.0262 7.3536C127.0848 6.9347 127.1043 6.4816 127.0848 5.9945C127.0651 5.4975 126.9434 5.0688 126.7195 4.7084C126.5049 4.3381 126.125 4.1335 125.5793 4.0945C124.6342 4.0896 123.6892 4.0848 122.744 4.0799C121.7308 9.9161 120.7176 15.7523 119.7044 21.5885C118.199 21.5885 116.6936 21.5885 115.1883 21.5885C116.4159 14.4954 117.6436 7.4024 118.8713 0.3093C121.1659 0.3142 123.4604 0.319 125.7549 0.3239C127.0798 0.3629 128.1956 0.699 129.1017 1.3323C130.0076 1.9657 130.6751 2.8035 131.1039 3.846C131.5326 4.8886 131.6932 6.0481 131.5862 7.3244C131.4692 8.7469 131.06 9.9746 130.3585 11.0073C129.6667 12.0402 128.7557 12.844 127.6256 13.4188C126.4952 13.9839 125.2286 14.2616 123.8256 14.2519Z"></path><path fill="#9ebe3d" stroke="none" fill-opacity="1" stroke-width="1" stroke-opacity="1" id="tSvg143b3f9b96" title="Path 8" d="M148.6416 9.2828C148.4711 10.413 148.3007 11.5432 148.1301 12.6734C147.9548 13.8816 147.643 15.0459 147.1947 16.1664C146.7563 17.2772 146.1766 18.2709 145.4556 19.1479C144.7444 20.015 143.8724 20.6971 142.8395 21.1939C141.8067 21.6811 140.6182 21.9101 139.2735 21.8808C137.9875 21.8516 136.9108 21.5739 136.0437 21.0478C135.1765 20.5217 134.4992 19.825 134.0122 18.9579C133.525 18.0907 133.2035 17.1164 133.0476 16.0349C132.9014 14.9534 132.8967 13.8475 133.0329 12.7173C133.2034 11.5871 133.3739 10.4569 133.5445 9.3266C133.7296 8.1184 134.0366 6.9541 134.4653 5.8337C134.9036 4.7132 135.4883 3.7096 136.219 2.823C136.9499 1.9267 137.8316 1.2251 138.8644 0.7184C139.897 0.2118 141.0956 -0.022 142.4597 0.017C143.7457 0.0462 144.8175 0.3336 145.6747 0.8792C146.542 1.4151 147.2142 2.1264 147.6916 3.013C148.179 3.8899 148.4955 4.874 148.6416 5.9652C148.7878 7.0565 148.7878 8.1623 148.6416 9.2828ZM143.5848 12.7173C143.7554 11.5676 143.9259 10.4179 144.0964 9.2682C144.155 8.8103 144.2083 8.2792 144.2572 7.6752C144.3059 7.0711 144.2864 6.4816 144.1986 5.9068C144.1208 5.3221 143.9211 4.835 143.5996 4.4453C143.2878 4.0458 142.7956 3.8314 142.1235 3.8022C141.3731 3.7535 140.7546 3.9045 140.2675 4.2553C139.7801 4.5963 139.3905 5.0542 139.0982 5.6291C138.8155 6.1942 138.5963 6.8031 138.4404 7.456C138.2943 8.099 138.1823 8.7128 138.1045 9.2975C137.9388 10.4423 137.7731 11.5871 137.6073 12.7319C137.549 13.1899 137.4953 13.7208 137.4467 14.3249C137.4078 14.9193 137.4272 15.5038 137.5051 16.0787C137.5929 16.6438 137.7927 17.1164 138.1045 17.4964C138.4259 17.8764 138.9228 18.0809 139.5951 18.1101C140.3258 18.1491 140.93 18.003 141.4073 17.6718C141.8945 17.3307 142.2843 16.8825 142.5764 16.3272C142.8687 15.7718 143.088 15.1774 143.2341 14.5442C143.39 13.9011 143.507 13.2922 143.5848 12.7173Z"></path><path fill="#9ebe3d" stroke="none" fill-opacity="1" stroke-width="1" stroke-opacity="1" id="tSvgb0d5756725" title="Path 9" d="M164.8057 0.3093C164.5864 1.5662 164.3672 2.823 164.1479 4.0799C161.7268 4.0799 159.3056 4.0799 156.8845 4.0799C155.8712 9.9161 154.8579 15.7523 153.8447 21.5885C152.3344 21.5885 150.8242 21.5885 149.3139 21.5885C150.5465 14.4954 151.779 7.4024 153.0116 0.3093C156.943 0.3093 160.8743 0.3093 164.8057 0.3093ZM154.663 7.7921C155.8176 7.8019 156.9723 7.8116 158.1269 7.8214C159.4226 7.8603 160.5383 8.1623 161.4736 8.7275C162.4187 9.2926 163.1298 10.072 163.6072 11.0658C164.0849 12.0597 164.2746 13.2045 164.1773 14.5003C164.0896 15.5623 163.8265 16.5317 163.3882 17.4087C162.9497 18.2855 162.3748 19.0358 161.6634 19.6593C160.9523 20.2829 160.1339 20.7652 159.2083 21.1062C158.2828 21.4472 157.2937 21.608 156.2414 21.5885C153.9421 21.5885 151.6427 21.5885 149.3433 21.5885C150.5709 14.4954 151.7985 7.4024 153.026 0.3093C154.5362 0.3093 156.0464 0.3093 157.5566 0.3093C156.5434 6.1504 155.5302 11.9915 154.5169 17.8325C155.1502 17.8423 155.7834 17.852 156.4168 17.8618C157.0695 17.852 157.62 17.6864 158.0682 17.3648C158.5164 17.0433 158.8721 16.6243 159.1353 16.108C159.4079 15.5915 159.5835 15.041 159.6613 14.4565C159.7294 14.018 159.7247 13.5845 159.6466 13.1558C159.5785 12.7173 159.4079 12.3519 159.1353 12.0597C158.8721 11.7673 158.4822 11.6017 157.966 11.5627C156.6458 11.5578 155.3256 11.553 154.0054 11.5481C154.2245 10.2961 154.4438 9.0441 154.663 7.7921Z"></path><path fill="#9ebe3d" stroke="none" fill-opacity="1" stroke-width="1" stroke-opacity="1" id="tSvg18e4f3497a4" title="Path 10" d="M182.1682 9.2828C181.9977 10.413 181.8271 11.5432 181.6566 12.6734C181.4812 13.8816 181.1695 15.0459 180.7213 16.1664C180.2828 17.2772 179.7032 18.2709 178.9823 19.1479C178.271 20.015 177.3989 20.6971 176.3661 21.1939C175.3335 21.6811 174.1447 21.9101 172.8 21.8808C171.5139 21.8516 170.4375 21.5739 169.5702 21.0478C168.7029 20.5217 168.0258 19.825 167.5386 18.9579C167.0515 18.0907 166.73 17.1164 166.5741 16.0349C166.428 14.9534 166.4232 13.8475 166.5597 12.7173C166.7301 11.5871 166.9006 10.4569 167.0709 9.3266C167.256 8.1184 167.5631 6.9541 167.9919 5.8337C168.4304 4.7132 169.0147 3.7096 169.7456 2.823C170.4764 1.9267 171.358 1.2251 172.391 0.7184C173.4236 0.2118 174.6221 -0.022 175.9862 0.017C177.2722 0.0462 178.344 0.3336 179.2013 0.8792C180.0685 1.4151 180.7407 2.1264 181.2182 3.013C181.7055 3.8899 182.022 4.874 182.1682 5.9652C182.3144 7.0565 182.3144 8.1623 182.1682 9.2828ZM177.1115 12.7173C177.282 11.5676 177.4524 10.4179 177.6229 9.2682C177.6815 8.8103 177.7351 8.2792 177.7838 7.6752C177.8324 7.0711 177.813 6.4816 177.7252 5.9068C177.6473 5.3221 177.4475 4.835 177.126 4.4453C176.8143 4.0458 176.3222 3.8314 175.6499 3.8022C174.8997 3.7535 174.2811 3.9045 173.794 4.2553C173.3066 4.5963 172.917 5.0542 172.6247 5.6291C172.3421 6.1942 172.1228 6.8031 171.9669 7.456C171.8208 8.099 171.7088 8.7128 171.6309 9.2975C171.4652 10.4423 171.2995 11.5871 171.1339 12.7319C171.0755 13.1899 171.0219 13.7208 170.9733 14.3249C170.9343 14.9193 170.9538 15.5038 171.0316 16.0787C171.1194 16.6438 171.3191 17.1164 171.6309 17.4964C171.9525 17.8764 172.4494 18.0809 173.1215 18.1101C173.8524 18.1491 174.4564 18.003 174.9339 17.6718C175.421 17.3307 175.8108 16.8825 176.1031 16.3272C176.3952 15.7718 176.6145 15.1774 176.7607 14.5442C176.9166 13.9011 177.0335 13.2922 177.1115 12.7173Z"></path><path fill="#9ebe3d" stroke="none" fill-opacity="1" stroke-width="1" stroke-opacity="1" id="tSvg3360f8e36a" title="Path 11" d="M191.77 12.425C190.2891 12.425 188.8082 12.425 187.3273 12.425C187.5075 11.3484 187.6878 10.2718 187.8681 9.1952C188.9787 9.2049 190.0894 9.2146 191.2002 9.2244C191.7556 9.2146 192.2427 9.1075 192.6618 8.9028C193.0805 8.6982 193.4218 8.401 193.6847 8.0113C193.9576 7.6216 194.1329 7.1441 194.2109 6.579C194.279 6.1114 194.284 5.6973 194.2254 5.3368C194.1671 4.9666 194.0062 4.6694 193.7433 4.4453C193.4899 4.2212 193.105 4.1043 192.5887 4.0945C191.8628 4.0896 191.1369 4.0848 190.4109 4.0799C189.3977 9.9161 188.3845 15.7523 187.3712 21.5885C185.8658 21.5885 184.3604 21.5885 182.8551 21.5885C184.0828 14.4954 185.3105 7.4024 186.5381 0.3093C188.6085 0.3142 190.6789 0.319 192.7494 0.3239C193.6555 0.3434 194.4885 0.4701 195.2486 0.7039C196.0085 0.9377 196.6663 1.2933 197.2215 1.7708C197.7867 2.2384 198.2105 2.8279 198.493 3.5392C198.7756 4.2504 198.8876 5.0931 198.829 6.0675C198.7512 7.1588 198.459 8.0746 197.9523 8.8151C197.4554 9.5556 196.788 10.1256 195.9499 10.5251C195.1219 10.9245 194.1818 11.1486 193.1294 11.1973C192.6764 11.6066 192.2232 12.0158 191.77 12.425ZM190.0894 21.5885C188.2091 21.5885 186.3286 21.5885 184.4482 21.5885C185.2179 20.3414 185.9876 19.0943 186.7574 17.8472C187.9265 17.852 189.0956 17.8569 190.2648 17.8618C190.8105 17.852 191.2733 17.7302 191.6533 17.4964C192.0429 17.2528 192.35 16.9264 192.574 16.5171C192.7981 16.108 192.9491 15.6451 193.0271 15.1287C193.0855 14.7488 193.11 14.359 193.1002 13.9595C193.1002 13.5601 193.0074 13.2191 192.8223 12.9365C192.6374 12.6442 192.3061 12.4785 191.8287 12.4396C190.5426 12.4347 189.2564 12.4298 187.9703 12.425C188.1701 11.3484 188.3698 10.2718 188.5694 9.1952C189.9481 9.2 191.3269 9.2049 192.7057 9.2098C192.9735 9.6335 193.2414 10.0574 193.5093 10.4813C194.4349 10.5105 195.1999 10.7297 195.8037 11.1389C196.4176 11.5384 196.8659 12.0889 197.1484 12.7904C197.4407 13.4822 197.548 14.2811 197.4699 15.1872C197.3824 16.6097 197.012 17.7984 196.3592 18.7533C195.7065 19.708 194.8392 20.4242 193.7578 20.9016C192.6763 21.379 191.4535 21.608 190.0894 21.5885Z"></path><path fill="#2E2E2D" stroke="none" fill-opacity="1" stroke-width="1" stroke-opacity="1" id="tSvg9dc82bbfee" title="Path 12" d="M222.1546 0.3093C222.1546 1.5418 222.1546 2.7743 222.1546 4.0068C218.5592 4.0068 214.964 4.0068 211.3686 4.0068C211.3686 2.7743 211.3686 1.5418 211.3686 0.3093C214.964 0.3093 218.5592 0.3093 222.1546 0.3093ZM225.4575 0.3093C225.4575 7.4024 225.4575 14.4954 225.4575 21.5885C223.8693 21.5885 222.2811 21.5885 220.6929 21.5885C220.6929 14.4954 220.6929 7.4024 220.6929 0.3093C222.2811 0.3093 223.8693 0.3093 225.4575 0.3093ZM210.9157 0.3093C212.4941 0.3093 214.0725 0.3093 215.6507 0.3093C215.4706 3.8947 215.2903 7.4803 215.1101 11.0658C215.0225 12.6734 214.8616 14.0716 214.6279 15.2603C214.4036 16.4393 214.0919 17.4379 213.6926 18.2563C213.3027 19.0651 212.8302 19.7178 212.2748 20.2147C211.7196 20.7019 211.0716 21.0526 210.331 21.267C209.5905 21.4814 208.7477 21.5885 207.8026 21.5885C207.4177 21.5885 207.0329 21.5885 206.6481 21.5885C206.6481 20.3609 206.6481 19.1333 206.6481 17.9055C206.8332 17.8861 207.0184 17.8666 207.2035 17.8472C207.6712 17.8082 208.0755 17.6864 208.4165 17.4818C208.7674 17.2772 209.0692 16.9751 209.3226 16.5756C209.5761 16.1664 209.7856 15.6451 209.9511 15.0119C210.1265 14.3785 210.2629 13.6087 210.3602 12.7027C210.4675 11.7966 210.5406 10.7345 210.5795 9.5166C210.6916 6.4475 210.8036 3.3784 210.9157 0.3093Z"></path><path fill="#2E2E2D" stroke="none" fill-opacity="1" stroke-width="1" stroke-opacity="1" id="tSvg6d0ebe1fac" title="Path 13" d="M233.8903 0.3093C233.8903 7.4024 233.8903 14.4954 233.8903 21.5885C232.3118 21.5885 230.7334 21.5885 229.1549 21.5885C229.1549 14.4954 229.1549 7.4024 229.1549 0.3093C230.7334 0.3093 232.3118 0.3093 233.8903 0.3093ZM237.7778 9.6481C237.7778 10.8368 237.7778 12.0256 237.7778 13.2142C235.7853 13.2142 233.7928 13.2142 231.8003 13.2142C231.8003 12.0256 231.8003 10.8368 231.8003 9.6481C233.7928 9.6481 235.7853 9.6481 237.7778 9.6481ZM254.4978 10.4813C254.4978 10.7978 254.4978 11.1145 254.4978 11.4312C254.4978 13.0486 254.2734 14.5003 253.8244 15.7864C253.3853 17.0725 252.7593 18.1686 251.9387 19.0748C251.1306 19.9809 250.1652 20.6776 249.0458 21.1647C247.9254 21.6421 246.6928 21.8808 245.3484 21.8808C243.994 21.8808 242.7519 21.6421 241.6214 21.1647C240.501 20.6776 239.5315 19.9809 238.7131 19.0748C237.8948 18.1686 237.2615 17.0725 236.8133 15.7864C236.3651 14.5003 236.1408 13.0486 236.1408 11.4312C236.1408 11.1145 236.1408 10.7978 236.1408 10.4813C236.1408 8.8638 236.3651 7.4121 236.8133 6.126C237.2615 4.8302 237.8898 3.7291 238.6984 2.823C239.5073 1.9169 240.4718 1.2251 241.5922 0.7477C242.7225 0.2606 243.9648 0.017 245.3192 0.017C246.6636 0.017 247.8963 0.2606 249.0167 0.7477C250.1478 1.2251 251.1156 1.9169 251.9262 2.823C252.7444 3.7291 253.3779 4.8302 253.8244 6.126C254.2734 7.4121 254.4978 8.8638 254.4978 10.4813ZM249.6889 11.4312C249.6889 11.1048 249.6889 10.7783 249.6889 10.452C249.6889 9.3704 249.5916 8.4156 249.3966 7.5875C249.2017 6.7495 248.9191 6.0481 248.5491 5.4829C248.1789 4.9179 247.7209 4.494 247.1751 4.2114C246.6297 3.9191 246.0108 3.7729 245.3192 3.7729C244.5981 3.7729 243.9696 3.9191 243.4338 4.2114C242.898 4.494 242.4448 4.9179 242.0747 5.4829C241.7042 6.0481 241.4266 6.7495 241.2416 7.5875C241.0565 8.4156 240.964 9.3704 240.964 10.452C240.964 10.7783 240.964 11.1048 240.964 11.4312C240.964 12.5029 241.0565 13.4578 241.2416 14.2957C241.4266 15.1238 241.7042 15.8254 242.0747 16.4003C242.4546 16.9751 242.9124 17.4087 243.4485 17.701C243.994 17.9932 244.6273 18.1394 245.3484 18.1394C246.04 18.1394 246.6539 17.9932 247.1898 17.701C247.7354 17.4087 248.1933 16.9751 248.5637 16.4003C248.9338 15.8254 249.2115 15.1238 249.3966 14.2957C249.5916 13.4578 249.6889 12.5029 249.6889 11.4312Z"></path><path fill="#2E2E2D" stroke="none" fill-opacity="1" stroke-width="1" stroke-opacity="1" id="tSvg96100fab1c" title="Path 14" d="M271.8453 0.3093C271.8453 1.5418 271.8453 2.7743 271.8453 4.0068C268.7075 4.0068 265.5698 4.0068 262.432 4.0068C262.432 9.8674 262.432 15.7279 262.432 21.5885C260.849 21.5885 259.266 21.5885 257.6829 21.5885C257.6829 14.4954 257.6829 7.4024 257.6829 0.3093C262.4038 0.3093 267.1246 0.3093 271.8453 0.3093ZM260.7384 7.8506C262.3264 7.8506 263.9145 7.8506 265.5025 7.8506C267.1985 7.8506 268.6676 8.1331 269.9148 8.6982C271.1619 9.2634 272.1222 10.0574 272.7957 11.0804C273.4666 12.0938 273.8033 13.2824 273.8033 14.6465C273.8033 15.6695 273.6088 16.6048 273.2196 17.4525C272.8381 18.3002 272.2843 19.0358 271.5535 19.6593C270.8327 20.2732 269.9597 20.7505 268.937 21.0916C267.9244 21.4229 266.7795 21.5885 265.5025 21.5885C262.9009 21.5885 260.2994 21.5885 257.6979 21.5885C257.6979 14.4954 257.6979 7.4024 257.6979 0.3093C259.2909 0.3093 260.8839 0.3093 262.4769 0.3093C262.4769 6.1747 262.4769 12.0402 262.4769 17.9055C263.4854 17.9055 264.4939 17.9055 265.5025 17.9055C266.2806 17.9055 266.9342 17.7595 267.4604 17.4672C267.9867 17.1651 268.3808 16.7656 268.6452 16.2688C268.917 15.7718 269.0542 15.2213 269.0542 14.6172C269.0542 14.0229 268.917 13.4968 268.6452 13.0388C268.3808 12.5711 267.9867 12.2057 267.4604 11.9427C266.9342 11.6699 266.2806 11.5335 265.5025 11.5335C263.9145 11.5335 262.3264 11.5335 260.7384 11.5335C260.7384 10.3059 260.7384 9.0782 260.7384 7.8506Z"></path><path fill="#2E2E2D" stroke="none" fill-opacity="1" stroke-width="1" stroke-opacity="1" id="tSvg11cc5409228" title="Path 15" d="M294.1764 10.4813C294.1764 10.7978 294.1764 11.1145 294.1764 11.4312C294.1764 13.0486 293.9519 14.5003 293.5054 15.7864C293.0664 17.0725 292.4379 18.1686 291.6197 19.0748C290.8091 19.9809 289.8464 20.6776 288.7264 21.1647C287.614 21.6421 286.3818 21.8808 285.0275 21.8808C283.6731 21.8808 282.4359 21.6421 281.316 21.1647C280.1961 20.6776 279.2208 19.9809 278.3928 19.0748C277.5746 18.1686 276.9411 17.0725 276.4921 15.7864C276.0456 14.5003 275.8211 13.0486 275.8211 11.4312C275.8211 11.1145 275.8211 10.7978 275.8211 10.4813C275.8211 8.8638 276.0456 7.4121 276.4921 6.126C276.9411 4.8302 277.5696 3.7291 278.3778 2.823C279.1959 1.9169 280.1661 1.2251 281.2861 0.7477C282.406 0.2606 283.6432 0.017 284.9975 0.017C286.3519 0.017 287.589 0.2606 288.7114 0.7477C289.8314 1.2251 290.7967 1.9169 291.6048 2.823C292.4229 3.7291 293.0564 4.8302 293.5054 6.126C293.9519 7.4121 294.1764 8.8638 294.1764 10.4813ZM289.3675 11.4312C289.3675 11.1048 289.3675 10.7783 289.3675 10.452C289.3675 9.3704 289.2702 8.4156 289.0756 7.5875C288.881 6.7495 288.5993 6.0481 288.2276 5.4829C287.8584 4.9179 287.3995 4.494 286.8558 4.2114C286.3095 3.9191 285.691 3.7729 284.9975 3.7729C284.2767 3.7729 283.6481 3.9191 283.1143 4.2114C282.5781 4.494 282.1241 4.9179 281.755 5.4829C281.3934 6.0481 281.1165 6.7495 280.9219 7.5875C280.7348 8.4156 280.6426 9.3704 280.6426 10.452C280.6426 10.7783 280.6426 11.1048 280.6426 11.4312C280.6426 12.5029 280.7348 13.4578 280.9219 14.2957C281.1165 15.1238 281.3984 15.8254 281.7674 16.4003C282.1391 16.9751 282.5931 17.4087 283.1268 17.701C283.6731 17.9932 284.3067 18.1394 285.0275 18.1394C285.7184 18.1394 286.3344 17.9932 286.8682 17.701C287.4144 17.4087 287.8734 16.9751 288.2426 16.4003C288.6142 15.8254 288.891 15.1238 289.0756 14.2957C289.2702 13.4578 289.3675 12.5029 289.3675 11.4312Z"></path><path fill="#2E2E2D" stroke="none" fill-opacity="1" stroke-width="1" stroke-opacity="1" id="tSvg14547dc858a" title="Path 16" d="M311.262 0.3093C311.262 1.5418 311.262 2.7743 311.262 4.0068C308.1243 4.0068 304.9865 4.0068 301.8487 4.0068C301.8487 9.8674 301.8487 15.7279 301.8487 21.5885C300.2656 21.5885 298.6826 21.5885 297.0997 21.5885C297.0997 14.4954 297.0997 7.4024 297.0997 0.3093C301.8204 0.3093 306.5412 0.3093 311.262 0.3093Z"></path><path fill="#2E2E2D" stroke="none" fill-opacity="1" stroke-width="1" stroke-opacity="1" id="tSvga1fcb6b927" title="Path 17" d="M330.5376 10.4813C330.5376 10.7978 330.5376 11.1145 330.5376 11.4312C330.5376 13.0486 330.3131 14.5003 329.8667 15.7864C329.4277 17.0725 328.7991 18.1686 327.981 19.0748C327.1729 19.9809 326.2076 20.6776 325.0877 21.1647C323.9752 21.6421 322.7431 21.8808 321.3887 21.8808C320.0344 21.8808 318.7971 21.6421 317.6772 21.1647C316.5573 20.6776 315.5821 19.9809 314.7539 19.0748C313.9359 18.1686 313.3023 17.0725 312.8534 15.7864C312.4069 14.5003 312.1824 13.0486 312.1824 11.4312C312.1824 11.1145 312.1824 10.7978 312.1824 10.4813C312.1824 8.8638 312.4069 7.4121 312.8534 6.126C313.3023 4.8302 313.9309 3.7291 314.739 2.823C315.5572 1.9169 316.5274 1.2251 317.6473 0.7477C318.7697 0.2606 320.0069 0.017 321.3613 0.017C322.7157 0.017 323.9528 0.2606 325.0727 0.7477C326.1926 1.2251 327.1579 1.9169 327.966 2.823C328.7841 3.7291 329.4177 4.8302 329.8667 6.126C330.3131 7.4121 330.5376 8.8638 330.5376 10.4813ZM325.7312 11.4312C325.7312 11.1048 325.7312 10.7783 325.7312 10.452C325.7312 9.3704 325.6339 8.4156 325.4369 7.5875C325.2423 6.7495 324.9604 6.0481 324.5913 5.4829C324.2197 4.9179 323.7632 4.494 323.2169 4.2114C322.6708 3.9191 322.0521 3.7729 321.3613 3.7729C320.6404 3.7729 320.0119 3.9191 319.4756 4.2114C318.9393 4.494 318.4854 4.9179 318.1162 5.4829C317.7545 6.0481 317.4777 6.7495 317.2831 7.5875C317.0986 8.4156 317.0063 9.3704 317.0063 10.452C317.0063 10.7783 317.0063 11.1048 317.0063 11.4312C317.0063 12.5029 317.0986 13.4578 317.2831 14.2957C317.4777 15.1238 317.7595 15.8254 318.1312 16.4003C318.5004 16.9751 318.9543 17.4087 319.4906 17.701C320.0344 17.9932 320.6678 18.1394 321.3887 18.1394C322.0821 18.1394 322.6957 17.9932 323.2319 17.701C323.7757 17.4087 324.2347 16.9751 324.6037 16.4003C324.9754 15.8254 325.2523 15.1238 325.4369 14.2957C325.6339 13.4578 325.7312 12.5029 325.7312 11.4312Z"></path><path fill="#2E2E2D" stroke="none" fill-opacity="1" stroke-width="1" stroke-opacity="1" id="tSvg51de3ce343" title="Path 18" d="M343.1959 0.3093C344.5112 0.3093 345.8266 0.3093 347.1419 0.3093C348.8462 5.3806 350.5506 10.452 352.2551 15.5233C353.9553 10.452 355.6556 5.3806 357.3558 0.3093C358.6712 0.3093 359.9865 0.3093 361.3018 0.3093C358.8174 7.4024 356.3332 14.4954 353.8489 21.5885C352.7822 21.5885 351.7154 21.5885 350.6488 21.5885C348.1645 14.4954 345.6803 7.4024 343.1959 0.3093ZM340.9162 0.3093C342.2556 0.3093 343.595 0.3093 344.9344 0.3093C345.183 5.5657 345.4316 10.8222 345.6803 16.0787C345.6803 17.9153 345.6803 19.7519 345.6803 21.5885C344.0922 21.5885 342.5042 21.5885 340.9162 21.5885C340.9162 14.4954 340.9162 7.4024 340.9162 0.3093ZM359.5632 0.3093C360.9076 0.3093 362.252 0.3093 363.5964 0.3093C363.5964 7.4024 363.5964 14.4954 363.5964 21.5885C362.0034 21.5885 360.4104 21.5885 358.8174 21.5885C358.8174 19.7519 358.8174 17.9153 358.8174 16.0787C359.066 10.8222 359.3146 5.5657 359.5632 0.3093Z"></path><path fill="#2E2E2D" stroke="none" fill-opacity="1" stroke-width="1" stroke-opacity="1" id="tSvg423a6eb1c5" title="Path 19" d="M376.2398 4.3576C374.4082 10.1012 372.5766 15.8449 370.745 21.5885C369.0497 21.5885 367.3544 21.5885 365.6592 21.5885C368.2848 14.4954 370.9104 7.4024 373.536 0.3093C374.6077 0.3093 375.6795 0.3093 376.7511 0.3093C376.5807 1.6587 376.4102 3.0082 376.2398 4.3576ZM380.7993 21.5885C378.9627 15.8449 377.1261 10.1012 375.2895 4.3576C375.0991 3.0082 374.9087 1.6587 374.7183 0.3093C375.805 0.3093 376.8917 0.3093 377.9783 0.3093C380.6139 7.4024 383.2495 14.4954 385.8851 21.5885C384.1899 21.5885 382.4946 21.5885 380.7993 21.5885ZM380.5648 13.6672C380.5648 14.8949 380.5648 16.1226 380.5648 17.3502C376.8676 17.3502 373.1702 17.3502 369.4729 17.3502C369.4729 16.1226 369.4729 14.8949 369.4729 13.6672C373.1702 13.6672 376.8676 13.6672 380.5648 13.6672Z"></path><path fill="#2E2E2D" stroke="none" fill-opacity="1" stroke-width="1" stroke-opacity="1" id="tSvg15d907d1509" title="Path 20" d="M399.5935 14.4565C401.1724 14.4565 402.7513 14.4565 404.3301 14.4565C404.2503 15.918 403.8512 17.2089 403.1303 18.3294C402.4195 19.4401 401.4293 20.3122 400.1647 20.9454C398.8976 21.569 397.391 21.8808 395.6476 21.8808C394.2533 21.8808 393.0062 21.6421 391.9062 21.1647C390.8062 20.6873 389.8709 20.0052 389.1002 19.1186C388.3395 18.2222 387.7558 17.1456 387.3468 15.8887C386.9477 14.6221 386.7481 13.1947 386.7481 11.6066C386.7481 11.173 386.7481 10.7394 386.7481 10.3059C386.7481 8.7177 386.9576 7.2903 387.3766 6.0237C387.7957 4.7571 388.3943 3.6755 389.1725 2.7792C389.9533 1.8828 390.8886 1.1959 391.9785 0.7184C393.0711 0.2411 394.2883 0.0023 395.6327 0.0023C397.4459 0.0023 398.9749 0.3288 400.2221 0.9815C401.4692 1.6344 402.4345 2.5307 403.1153 3.6706C403.8088 4.8107 404.2229 6.1114 404.3576 7.5729C402.7745 7.5729 401.1915 7.5729 399.6085 7.5729C399.5686 6.7447 399.4139 6.0481 399.1395 5.4829C398.8676 4.9081 398.4487 4.4745 397.8849 4.1822C397.3188 3.8899 396.568 3.7437 395.6327 3.7437C394.9517 3.7437 394.3531 3.8704 393.8343 4.1237C393.3279 4.3771 392.904 4.7717 392.5647 5.3075C392.233 5.8434 391.9835 6.5254 391.8189 7.3536C391.6518 8.172 391.5695 9.1464 391.5695 10.2766C391.5695 10.72 391.5695 11.1632 391.5695 11.6066C391.5695 12.727 391.6444 13.6965 391.789 14.5149C391.9361 15.3333 392.1706 16.0105 392.4899 16.5463C392.8216 17.0823 393.2456 17.4818 393.7619 17.7449C394.2783 18.0078 394.9068 18.1394 395.6476 18.1394C396.4956 18.1394 397.2016 18.0078 397.7677 17.7449C398.3314 17.472 398.7655 17.0628 399.0672 16.5171C399.369 15.9715 399.5461 15.2846 399.5935 14.4565Z"></path><path fill="#2E2E2D" stroke="none" fill-opacity="1" stroke-width="1" stroke-opacity="1" id="tSvgabf8b91a23" title="Path 21" d="M406.9017 0.3093C408.4897 0.3093 410.0777 0.3093 411.6657 0.3093C411.6657 6.1747 411.6657 12.0402 411.6657 17.9055C413.5414 17.9055 415.4171 17.9055 417.2928 17.9055C417.2928 12.0402 417.2928 6.1747 417.2928 0.3093C418.8757 0.3093 420.4587 0.3093 422.0418 0.3093C422.0418 6.1747 422.0418 12.0402 422.0418 17.9055C423.8884 17.9055 425.735 17.9055 427.5815 17.9055C427.5815 12.0402 427.5815 6.1747 427.5815 0.3093C429.1645 0.3093 430.7476 0.3093 432.3306 0.3093C432.3306 7.4024 432.3306 14.4954 432.3306 21.5885C423.8543 21.5885 415.378 21.5885 406.9017 21.5885C406.9017 14.4954 406.9017 7.4024 406.9017 0.3093Z"></path><path fill="#2E2E2D" stroke="none" fill-opacity="1" stroke-width="1" stroke-opacity="1" id="tSvg1530d594a69" title="Path 22" d="M445.2658 0.3093C445.2658 7.4024 445.2658 14.4954 445.2658 21.5885C443.6819 21.5885 442.0981 21.5885 440.5142 21.5885C440.5142 14.4954 440.5142 7.4024 440.5142 0.3093C442.0981 0.3093 443.6819 0.3093 445.2658 0.3093ZM451.7409 0.3093C451.7409 1.5418 451.7409 2.7743 451.7409 4.0068C445.8844 4.0068 440.0279 4.0068 434.1714 4.0068C434.1714 2.7743 434.1714 1.5418 434.1714 0.3093C440.0279 0.3093 445.8844 0.3093 451.7409 0.3093Z"></path><path fill="#2E2E2D" stroke="none" fill-opacity="1" stroke-width="1" stroke-opacity="1" id="tSvg89f047dd57" title="Path 23" d="M461.2689 4.3576C459.4373 10.1012 457.6057 15.8449 455.7741 21.5885C454.0788 21.5885 452.3836 21.5885 450.6883 21.5885C453.3139 14.4954 455.9396 7.4024 458.5652 0.3093C459.6368 0.3093 460.7085 0.3093 461.7802 0.3093C461.6098 1.6587 461.4394 3.0082 461.2689 4.3576ZM465.8284 21.5885C463.9918 15.8449 462.1552 10.1012 460.3187 4.3576C460.1282 3.0082 459.9378 1.6587 459.7474 0.3093C460.8341 0.3093 461.9207 0.3093 463.0074 0.3093C465.643 7.4024 468.2786 14.4954 470.9142 21.5885C469.2189 21.5885 467.5236 21.5885 465.8284 21.5885ZM465.594 13.6672C465.594 14.8949 465.594 16.1226 465.594 17.3502C461.8966 17.3502 458.1993 17.3502 454.5021 17.3502C454.5021 16.1226 454.5021 14.8949 454.5021 13.6672C458.1993 13.6672 461.8966 13.6672 465.594 13.6672Z"></path><path fill="#2E2E2D" stroke="none" fill-opacity="1" stroke-width="1" stroke-opacity="1" id="tSvga403185a42" title="Path 24" d="M486.83 0.3093C486.83 1.5418 486.83 2.7743 486.83 4.0068C483.6931 4.0068 480.5561 4.0068 477.4193 4.0068C477.4193 9.8674 477.4193 15.7279 477.4193 21.5885C475.8354 21.5885 474.2515 21.5885 472.6677 21.5885C472.6677 14.4954 472.6677 7.4024 472.6677 0.3093C477.3885 0.3093 482.1092 0.3093 486.83 0.3093ZM475.7231 7.8506C477.3112 7.8506 478.8992 7.8506 480.4871 7.8506C482.1832 7.8506 483.6548 8.1331 484.9019 8.6982C486.1491 9.2634 487.1069 10.0574 487.7803 11.0804C488.4513 12.0938 488.7881 13.2824 488.7881 14.6465C488.7881 15.6695 488.5935 16.6048 488.2044 17.4525C487.8227 18.3002 487.269 19.0358 486.5382 19.6593C485.8174 20.2732 484.9443 20.7505 483.9217 21.0916C482.9091 21.4229 481.7642 21.5885 480.4871 21.5885C477.8856 21.5885 475.2841 21.5885 472.6826 21.5885C472.6826 14.4954 472.6826 7.4024 472.6826 0.3093C474.2756 0.3093 475.8687 0.3093 477.4617 0.3093C477.4617 6.1747 477.4617 12.0402 477.4617 17.9055C478.4701 17.9055 479.4786 17.9055 480.4871 17.9055C481.2654 17.9055 481.9188 17.7595 482.4451 17.4672C482.9714 17.1651 483.3655 16.7656 483.6299 16.2688C483.9018 15.7718 484.039 15.2213 484.039 14.6172C484.039 14.0229 483.9018 13.4968 483.6299 13.0388C483.3655 12.5711 482.9714 12.2057 482.4451 11.9427C481.9188 11.6699 481.2654 11.5335 480.4871 11.5335C478.8992 11.5335 477.3112 11.5335 475.7231 11.5335C475.7231 10.3059 475.7231 9.0782 475.7231 7.8506Z"></path><path fill="#2E2E2D" stroke="none" fill-opacity="1" stroke-width="1" stroke-opacity="1" id="tSvgae0e894a94" title="Path 25" d="M500.2616 4.3576C498.43 10.1012 496.5983 15.8449 494.7667 21.5885C493.0715 21.5885 491.3762 21.5885 489.681 21.5885C492.3066 14.4954 494.9322 7.4024 497.5578 0.3093C498.6295 0.3093 499.7012 0.3093 500.7729 0.3093C500.6024 1.6587 500.432 3.0082 500.2616 4.3576ZM504.821 21.5885C502.9845 15.8449 501.1479 10.1012 499.3112 4.3576C499.1208 3.0082 498.9305 1.6587 498.7401 0.3093C499.8268 0.3093 500.9134 0.3093 502 0.3093C504.6357 7.4024 507.2713 14.4954 509.9069 21.5885C508.2116 21.5885 506.5163 21.5885 504.821 21.5885ZM504.5867 13.6672C504.5867 14.8949 504.5867 16.1226 504.5867 17.3502C500.8893 17.3502 497.192 17.3502 493.4946 17.3502C493.4946 16.1226 493.4946 14.8949 493.4946 13.6672C497.192 13.6672 500.8893 13.6672 504.5867 13.6672Z"></path></svg> 