<?xml version="1.0" encoding="UTF-8"?> <svg xmlns="http://www.w3.org/2000/svg" viewBox="0 0 383.00 57.79" data-guides="{&quot;vertical&quot;:[],&quot;horizontal&quot;:[]}"><defs></defs><path fill="white" stroke="none" fill-opacity="1" stroke-width="1" stroke-opacity="1" id="tSvg575eaafc7e" title="Path 1" d="M14.1833 0.3069C14.1833 1.5392 14.1833 2.7715 14.1833 4.0038C11.0465 4.0038 7.9096 4.0038 4.7728 4.0038C4.7728 9.8635 4.7728 15.7231 4.7728 21.5828C3.1898 21.5828 1.6067 21.5828 0.0237 21.5828C0.0237 14.4908 0.0237 7.3988 0.0237 0.3069C4.7436 0.3069 9.4634 0.3069 14.1833 0.3069Z"></path><path fill="white" stroke="none" fill-opacity="1" stroke-width="1" stroke-opacity="1" id="tSvg1109c08fde5" title="Path 2" d="M33.4572 10.4772C33.4572 10.7938 33.4572 11.1104 33.4572 11.427C33.4572 13.0442 33.2333 14.4957 32.785 15.7816C32.3467 17.0675 31.7185 18.1634 30.9002 19.0694C30.0914 19.9754 29.127 20.6719 28.0069 21.159C26.8962 21.6363 25.664 21.875 24.3098 21.875C22.9557 21.875 21.7185 21.6363 20.5982 21.159C19.4779 20.6719 18.5038 19.9754 17.6757 19.0694C16.8574 18.1634 16.2242 17.0675 15.7761 15.7816C15.328 14.4957 15.1039 13.0442 15.1039 11.427C15.1039 11.1104 15.1039 10.7938 15.1039 10.4772C15.1039 8.8601 15.328 7.4086 15.7761 6.1227C16.2242 4.827 16.8525 3.7262 17.6611 2.8202C18.4794 1.9142 19.4487 1.2226 20.569 0.7452C21.6893 0.2582 22.9265 0.0146 24.2806 0.0146C25.6346 0.0146 26.872 0.2582 27.9922 0.7452C29.1126 1.2226 30.0769 1.9142 30.8855 2.8202C31.7037 3.7262 32.337 4.827 32.785 6.1227C33.2333 7.4086 33.4572 8.8601 33.4572 10.4772ZM28.6499 11.427C28.6499 11.1007 28.6499 10.7743 28.6499 10.448C28.6499 9.3667 28.5524 8.412 28.3574 7.5839C28.1627 6.7461 27.8802 6.0447 27.51 5.4797C27.1397 4.9147 26.682 4.4909 26.1365 4.2084C25.5907 3.9162 24.9722 3.7701 24.2806 3.7701C23.5597 3.7701 22.9314 3.9162 22.3956 4.2084C21.8598 4.4909 21.4068 4.9147 21.0366 5.4797C20.6762 6.0447 20.3985 6.7461 20.2037 7.5839C20.0186 8.412 19.926 9.3667 19.926 10.448C19.926 10.7743 19.926 11.1007 19.926 11.427C19.926 12.4986 20.0186 13.4533 20.2037 14.2911C20.3985 15.1191 20.681 15.8205 21.0512 16.3953C21.4214 16.9701 21.8744 17.4036 22.4102 17.6958C22.9557 17.9881 23.5889 18.1342 24.3098 18.1342C25.0016 18.1342 25.6152 17.9881 26.1509 17.6958C26.6965 17.4036 27.1544 16.9701 27.5247 16.3953C27.8947 15.8205 28.1724 15.1191 28.3574 14.2911C28.5524 13.4533 28.6499 12.4986 28.6499 11.427Z"></path><path fill="white" stroke="none" fill-opacity="1" stroke-width="1" stroke-opacity="1" id="tSvg2ebd387919" title="Path 3" d="M45.1766 0.3069C45.1766 7.3988 45.1766 14.4908 45.1766 21.5828C43.5935 21.5828 42.0104 21.5828 40.4274 21.5828C40.4274 14.4908 40.4274 7.3988 40.4274 0.3069C42.0104 0.3069 43.5935 0.3069 45.1766 0.3069ZM51.6499 0.3069C51.6499 1.5392 51.6499 2.7715 51.6499 4.0038C45.7952 4.0038 39.9404 4.0038 34.0857 4.0038C34.0857 2.7715 34.0857 1.5392 34.0857 0.3069C39.9404 0.3069 45.7952 0.3069 51.6499 0.3069Z"></path><path fill="white" stroke="none" fill-opacity="1" stroke-width="1" stroke-opacity="1" id="tSvg1768531ae5c" title="Path 4" d="M71.333 10.4772C71.333 10.7938 71.333 11.1104 71.333 11.427C71.333 13.0442 71.1091 14.4957 70.6608 15.7816C70.2225 17.0675 69.5943 18.1634 68.7757 19.0694C67.9672 19.9754 67.0029 20.6719 65.8827 21.159C64.772 21.6363 63.5396 21.875 62.1855 21.875C60.8315 21.875 59.5944 21.6363 58.474 21.159C57.3538 20.6719 56.3794 19.9754 55.5515 19.0694C54.7332 18.1634 54.0999 17.0675 53.6519 15.7816C53.2036 14.4957 52.9797 13.0442 52.9797 11.427C52.9797 11.1104 52.9797 10.7938 52.9797 10.4772C52.9797 8.8601 53.2036 7.4086 53.6519 6.1227C54.0999 4.827 54.7282 3.7262 55.537 2.8202C56.3553 1.9142 57.3246 1.2226 58.4448 0.7452C59.565 0.2582 60.8023 0.0146 62.1564 0.0146C63.5104 0.0146 64.7478 0.2582 65.868 0.7452C66.9881 1.2226 67.9528 1.9142 68.7613 2.8202C69.5795 3.7262 70.2128 4.827 70.6608 6.1227C71.1091 7.4086 71.333 8.8601 71.333 10.4772ZM66.5254 11.427C66.5254 11.1007 66.5254 10.7743 66.5254 10.448C66.5254 9.3667 66.4282 8.412 66.2332 7.5839C66.0385 6.7461 65.756 6.0447 65.3858 5.4797C65.0155 4.9147 64.5578 4.4909 64.012 4.2084C63.4665 3.9162 62.848 3.7701 62.1564 3.7701C61.4356 3.7701 60.8071 3.9162 60.2713 4.2084C59.7355 4.4909 59.2825 4.9147 58.9123 5.4797C58.552 6.0447 58.2742 6.7461 58.0795 7.5839C57.8943 8.412 57.8018 9.3667 57.8018 10.448C57.8018 10.7743 57.8018 11.1007 57.8018 11.427C57.8018 12.4986 57.8943 13.4533 58.0795 14.2911C58.2742 15.1191 58.5567 15.8205 58.927 16.3953C59.2972 16.9701 59.7502 17.4036 60.286 17.6958C60.8315 17.9881 61.4648 18.1342 62.1855 18.1342C62.8771 18.1342 63.491 17.9881 64.0268 17.6958C64.5723 17.4036 65.0303 16.9701 65.4002 16.3953C65.7705 15.8205 66.0482 15.1191 66.2332 14.2911C66.4282 13.4533 66.5254 12.4986 66.5254 11.427Z"></path><path fill="white" stroke="none" fill-opacity="1" stroke-width="1" stroke-opacity="1" id="tSvg19550c57864" title="Path 5" d="M82.76 12.3915C80.9383 12.3915 79.1166 12.3915 77.2949 12.3915C77.2852 11.3296 77.2755 10.2678 77.2658 9.2059C78.7709 9.2059 80.276 9.2059 81.7811 9.2059C82.58 9.2059 83.2277 9.1085 83.7246 8.9137C84.2312 8.7188 84.6012 8.4363 84.835 8.0661C85.0689 7.6862 85.1858 7.2186 85.1858 6.6633C85.1858 6.0301 85.0689 5.5187 84.835 5.129C84.6012 4.7393 84.2312 4.4568 83.7246 4.2815C83.2277 4.0964 82.5847 4.0038 81.7956 4.0038C80.8701 4.0038 79.9447 4.0038 79.0192 4.0038C79.0192 9.8635 79.0192 15.7231 79.0192 21.5828C77.4313 21.5828 75.8434 21.5828 74.2555 21.5828C74.2555 14.4908 74.2555 7.3988 74.2555 0.3069C76.7689 0.3069 79.2822 0.3069 81.7956 0.3069C83.0719 0.3069 84.2115 0.4238 85.215 0.6576C86.2185 0.8914 87.0709 1.2518 87.7722 1.7389C88.4833 2.226 89.0241 2.8348 89.3943 3.5655C89.7643 4.2961 89.9495 5.1582 89.9495 6.1519C89.9495 7.0189 89.7546 7.8275 89.3649 8.5776C88.9849 9.3277 88.3714 9.9365 87.5237 10.4041C86.6762 10.8718 85.5413 11.125 84.119 11.164C83.666 11.5732 83.213 11.9823 82.76 12.3915ZM82.5702 21.5828C80.4076 21.5828 78.2449 21.5828 76.0822 21.5828C76.657 20.3553 77.2318 19.1278 77.8065 17.9004C79.3944 17.9004 80.9823 17.9004 82.5702 17.9004C83.3007 17.9004 83.8951 17.7835 84.3529 17.5497C84.8106 17.3159 85.1469 16.9993 85.3611 16.5999C85.5755 16.2005 85.6827 15.7523 85.6827 15.2555C85.6827 14.671 85.5802 14.1644 85.3758 13.7358C85.1808 13.3072 84.8692 12.976 84.4406 12.7422C84.0218 12.5084 83.4615 12.3915 82.76 12.3915C81.3377 12.3915 79.9154 12.3915 78.4931 12.3915C78.503 11.3296 78.5128 10.2678 78.5226 9.2059C80.2614 9.2059 82.0002 9.2059 83.739 9.2059C84.1093 9.6248 84.4795 10.0437 84.8497 10.4626C86.2038 10.4334 87.2851 10.6526 88.0936 11.1202C88.9119 11.578 89.5013 12.182 89.8618 12.9321C90.2223 13.6822 90.4025 14.4762 90.4025 15.314C90.4025 16.6973 90.1054 17.8566 89.511 18.7918C88.9169 19.7172 88.0353 20.4138 86.8662 20.8814C85.7069 21.349 84.2748 21.5828 82.5702 21.5828Z"></path><path fill="white" stroke="none" fill-opacity="1" stroke-width="1" stroke-opacity="1" id="tSvg590a81612a" title="Path 6" d="M105.6872 0.3069C105.6872 7.3988 105.6872 14.4908 105.6872 21.5828C104.1042 21.5828 102.5212 21.5828 100.9382 21.5828C100.9382 14.4908 100.9382 7.3988 100.9382 0.3069C102.5212 0.3069 104.1042 0.3069 105.6872 0.3069ZM118.0932 0.3069C115.4581 4.5299 112.823 8.7529 110.1879 12.976C108.3759 12.976 106.564 12.976 104.752 12.976C104.5572 11.5585 104.3624 10.1411 104.1676 8.7237C105.3463 8.7237 106.525 8.7237 107.7037 8.7237C109.2478 5.9181 110.7919 3.1125 112.336 0.3069C114.2551 0.3069 116.1742 0.3069 118.0932 0.3069ZM113.169 21.5828C111.3472 18.4459 109.5254 15.3091 107.7037 12.1723C108.8288 11.0812 109.954 9.9901 111.0792 8.8991C113.6559 13.127 116.2326 17.3549 118.8093 21.5828C116.9292 21.5828 115.0491 21.5828 113.169 21.5828Z"></path><path fill="white" stroke="none" fill-opacity="1" stroke-width="1" stroke-opacity="1" id="tSvg183c7708641" title="Path 7" d="M134.4594 13.7212C136.1642 9.2498 137.8689 4.7783 139.5737 0.3069C141.2639 0.3069 142.9541 0.3069 144.6443 0.3069C142.2332 5.9765 139.8222 11.6462 137.4111 17.3159C137.1481 17.9199 136.8461 18.4995 136.5051 19.0548C136.1643 19.6003 135.7599 20.0874 135.2924 20.5161C134.8344 20.9349 134.2839 21.271 133.6412 21.5243C133.0079 21.7679 132.2577 21.8896 131.3908 21.8896C131.1667 21.8896 130.8987 21.8848 130.587 21.875C130.2851 21.8653 130.0318 21.8555 129.8271 21.8458C129.8077 20.6135 129.7882 19.3811 129.7688 18.1488C129.8954 18.178 130.0757 18.1975 130.3093 18.2073C130.5529 18.2073 130.7234 18.2073 130.8209 18.2073C131.4053 18.2073 131.8633 18.1293 132.1944 17.9735C132.5354 17.8176 132.8032 17.5935 132.9982 17.3013C133.2026 17.009 133.3829 16.6437 133.5387 16.2053C133.8456 15.3773 134.1525 14.5493 134.4594 13.7212ZM131.2884 0.3069C132.8276 3.5996 134.3668 6.8923 135.906 10.185C136.4077 11.9774 136.9094 13.7699 137.4111 15.5624C136.2567 15.5721 135.1022 15.5819 133.9478 15.5916C131.3712 10.4967 128.7946 5.4018 126.218 0.3069C127.9081 0.3069 129.5982 0.3069 131.2884 0.3069Z"></path><path fill="white" stroke="none" fill-opacity="1" stroke-width="1" stroke-opacity="1" id="tSvg102afe9c23f" title="Path 8" d="M160.8205 0.3069C160.8205 1.5392 160.8205 2.7715 160.8205 4.0038C157.6837 4.0038 154.5468 4.0038 151.41 4.0038C151.41 9.8635 151.41 15.7231 151.41 21.5828C149.8269 21.5828 148.2439 21.5828 146.6608 21.5828C146.6608 14.4908 146.6608 7.3988 146.6608 0.3069C151.3807 0.3069 156.1006 0.3069 160.8205 0.3069ZM149.7149 7.8469C151.3028 7.8469 152.8907 7.8469 154.4786 7.8469C156.1737 7.8469 157.6447 8.1295 158.8915 8.6945C160.1386 9.2595 161.098 10.0535 161.7702 11.0763C162.4423 12.0895 162.7784 13.2779 162.7784 14.6418C162.7784 15.6647 162.5837 16.5999 162.194 17.4474C161.814 18.2949 161.2588 19.0304 160.5281 19.6539C159.8073 20.2676 158.9354 20.745 157.9125 21.0859C156.8995 21.4172 155.7546 21.5828 154.4786 21.5828C151.8776 21.5828 149.2765 21.5828 146.6755 21.5828C146.6755 14.4908 146.6755 7.3988 146.6755 0.3069C148.2682 0.3069 149.8609 0.3069 151.4536 0.3069C151.4536 6.1714 151.4536 12.0359 151.4536 17.9004C152.462 17.9004 153.4703 17.9004 154.4786 17.9004C155.258 17.9004 155.9107 17.7543 156.4368 17.462C156.9628 17.16 157.3572 16.7606 157.6203 16.2638C157.893 15.767 158.0294 15.2166 158.0294 14.6126C158.0294 14.0183 157.893 13.4923 157.6203 13.0344C157.3572 12.5668 156.9628 12.2015 156.4368 11.9385C155.9107 11.6657 155.258 11.5293 154.4786 11.5293C152.8907 11.5293 151.3028 11.5293 149.7149 11.5293C149.7149 10.3019 149.7149 9.0744 149.7149 7.8469Z"></path><path fill="white" stroke="none" fill-opacity="1" stroke-width="1" stroke-opacity="1" id="tSvg87607751af" title="Path 9" d="M183.1484 10.4772C183.1484 10.7938 183.1484 11.1104 183.1484 11.427C183.1484 13.0442 182.9245 14.4957 182.4762 15.7816C182.0379 17.0675 181.4096 18.1634 180.5911 19.0694C179.7826 19.9754 178.8182 20.6719 177.698 21.159C176.5873 21.6363 175.355 21.875 174.0009 21.875C172.6469 21.875 171.4098 21.6363 170.2893 21.159C169.1691 20.6719 168.1948 19.9754 167.3668 19.0694C166.5486 18.1634 165.9153 17.0675 165.4673 15.7816C165.019 14.4957 164.7951 13.0442 164.7951 11.427C164.7951 11.1104 164.7951 10.7938 164.7951 10.4772C164.7951 8.8601 165.019 7.4086 165.4673 6.1227C165.9153 4.827 166.5436 3.7262 167.3521 2.8202C168.1706 1.9142 169.1397 1.2226 170.2602 0.7452C171.3803 0.2582 172.6177 0.0146 173.9717 0.0146C175.3258 0.0146 176.5632 0.2582 177.6833 0.7452C178.8035 1.2226 179.7681 1.9142 180.5767 2.8202C181.3949 3.7262 182.0282 4.827 182.4762 6.1227C182.9245 7.4086 183.1484 8.8601 183.1484 10.4772ZM178.3408 11.427C178.3408 11.1007 178.3408 10.7743 178.3408 10.448C178.3408 9.3667 178.2436 8.412 178.0486 7.5839C177.8539 6.7461 177.5714 6.0447 177.2012 5.4797C176.8309 4.9147 176.3732 4.4909 175.8274 4.2084C175.2819 3.9162 174.6634 3.7701 173.9717 3.7701C173.251 3.7701 172.6224 3.9162 172.0867 4.2084C171.5509 4.4909 171.0979 4.9147 170.7276 5.4797C170.3674 6.0447 170.0896 6.7461 169.8949 7.5839C169.7097 8.412 169.6172 9.3667 169.6172 10.448C169.6172 10.7743 169.6172 11.1007 169.6172 11.427C169.6172 12.4986 169.7097 13.4533 169.8949 14.2911C170.0896 15.1191 170.3721 15.8205 170.7423 16.3953C171.1126 16.9701 171.5656 17.4036 172.1014 17.6958C172.6469 17.9881 173.2801 18.1342 174.0009 18.1342C174.6925 18.1342 175.3063 17.9881 175.8421 17.6958C176.3876 17.4036 176.8456 16.9701 177.2156 16.3953C177.5859 15.8205 177.8636 15.1191 178.0486 14.2911C178.2436 13.4533 178.3408 12.4986 178.3408 11.427Z"></path><path fill="white" stroke="none" fill-opacity="1" stroke-width="1" stroke-opacity="1" id="tSvg98c485d44" title="Path 10" d="M194.4587 14.1888C192.6759 14.1888 190.8931 14.1888 189.1103 14.1888C189.1103 12.9565 189.1103 11.7242 189.1103 10.4918C190.8931 10.4918 192.6759 10.4918 194.4587 10.4918C195.2478 10.4918 195.8808 10.3603 196.3582 10.0973C196.8454 9.8343 197.2009 9.4738 197.4248 9.016C197.6587 8.5483 197.7756 8.0223 197.7756 7.4378C197.7756 6.8338 197.6587 6.2737 197.4248 5.7574C197.2009 5.2313 196.8454 4.8075 196.3582 4.4861C195.8808 4.1646 195.2478 4.0038 194.4587 4.0038C193.2506 4.0038 192.0426 4.0038 190.8346 4.0038C190.8346 9.8635 190.8346 15.7231 190.8346 21.5828C189.2467 21.5828 187.6588 21.5828 186.0709 21.5828C186.0709 14.4908 186.0709 7.3988 186.0709 0.3069C188.8668 0.3069 191.6627 0.3069 194.4587 0.3069C196.1535 0.3069 197.605 0.6137 198.813 1.2275C200.0309 1.8412 200.9611 2.6839 201.6041 3.7554C202.2568 4.8173 202.5832 6.035 202.5832 7.4086C202.5832 8.7822 202.2568 9.9755 201.6041 10.9886C200.9611 12.0018 200.0309 12.7909 198.813 13.3559C197.605 13.9112 196.1535 14.1888 194.4587 14.1888Z"></path><path fill="white" stroke="none" fill-opacity="1" stroke-width="1" stroke-opacity="1" id="tSvge8ba38a9b5" title="Path 11" d="M210.2255 0.3069C210.2255 7.3988 210.2255 14.4908 210.2255 21.5828C208.6425 21.5828 207.0595 21.5828 205.4765 21.5828C205.4765 14.4908 205.4765 7.3988 205.4765 0.3069C207.0595 0.3069 208.6425 0.3069 210.2255 0.3069ZM222.6315 0.3069C219.9964 4.5299 217.3613 8.7529 214.7262 12.976C212.9142 12.976 211.1023 12.976 209.2903 12.976C209.0955 11.5585 208.9007 10.1411 208.7059 8.7237C209.8846 8.7237 211.0633 8.7237 212.242 8.7237C213.7861 5.9181 215.3302 3.1125 216.8743 0.3069C218.7934 0.3069 220.7125 0.3069 222.6315 0.3069ZM217.7073 21.5828C215.8855 18.4459 214.0637 15.3091 212.242 12.1723C213.3671 11.0812 214.4923 9.9901 215.6175 8.8991C218.1942 13.127 220.7709 17.3549 223.3476 21.5828C221.4675 21.5828 219.5874 21.5828 217.7073 21.5828Z"></path><path fill="white" stroke="none" fill-opacity="1" stroke-width="1" stroke-opacity="1" id="tSvg11f17e2c3b8" title="Path 12" d="M239.2899 17.9004C239.2899 19.1278 239.2899 20.3553 239.2899 21.5828C235.515 21.5828 231.7401 21.5828 227.9652 21.5828C227.9652 20.3553 227.9652 19.1278 227.9652 17.9004C231.7401 17.9004 235.515 17.9004 239.2899 17.9004ZM229.5872 0.3069C229.5872 7.3988 229.5872 14.4908 229.5872 21.5828C227.9993 21.5828 226.4114 21.5828 224.8235 21.5828C224.8235 14.4908 224.8235 7.3988 224.8235 0.3069C226.4114 0.3069 227.9993 0.3069 229.5872 0.3069ZM237.8287 8.8698C237.8287 10.0583 237.8287 11.2468 237.8287 12.4353C234.5408 12.4353 231.253 12.4353 227.9652 12.4353C227.9652 11.2468 227.9652 10.0583 227.9652 8.8698C231.253 8.8698 234.5408 8.8698 237.8287 8.8698ZM239.3046 0.3069C239.3046 1.5392 239.3046 2.7715 239.3046 4.0038C235.5248 4.0038 231.745 4.0038 227.9652 4.0038C227.9652 2.7715 227.9652 1.5392 227.9652 0.3069C231.745 0.3069 235.5248 0.3069 239.3046 0.3069Z"></path><path fill="white" stroke="none" fill-opacity="1" stroke-width="1" stroke-opacity="1" id="tSvgaf50d6eee4" title="Path 13" d="M261.3109 14.4518C262.8891 14.4518 264.4672 14.4518 266.0454 14.4518C265.9681 15.9131 265.5692 17.2039 264.8462 18.3242C264.1357 19.4347 263.1484 20.3066 261.8818 20.9398C260.6153 21.5633 259.1094 21.875 257.3667 21.875C255.973 21.875 254.7264 21.6363 253.6244 21.159C252.5249 20.6817 251.59 19.9997 250.8196 19.1132C250.0592 18.217 249.4758 17.1405 249.0657 15.8839C248.6663 14.6174 248.4666 13.1903 248.4666 11.6024C248.4666 11.1689 248.4666 10.7354 248.4666 10.3019C248.4666 8.714 248.676 7.2868 249.0948 6.0204C249.5132 4.754 250.114 3.6726 250.8919 2.7764C251.6723 1.8802 252.6072 1.1934 253.6967 0.716C254.7887 0.2387 256.0079 0 257.3517 0C259.1618 0 260.6926 0.3263 261.9392 0.979C263.1858 1.6317 264.1506 2.528 264.8337 3.6678C265.5244 4.8075 265.9382 6.1081 266.0753 7.5693C264.4922 7.5693 262.909 7.5693 261.3258 7.5693C261.286 6.7413 261.1314 6.0447 260.8571 5.4797C260.5854 4.9049 260.1665 4.4715 259.6006 4.1792C259.0371 3.8869 258.2867 3.7408 257.3517 3.7408C256.6686 3.7408 256.0702 3.8675 255.5541 4.1207C255.048 4.374 254.6242 4.7686 254.2826 5.3044C253.951 5.8402 253.7017 6.5221 253.5372 7.3501C253.3726 8.1684 253.2879 9.1426 253.2879 10.2726C253.2879 10.7159 253.2879 11.1591 253.2879 11.6024C253.2879 12.7227 253.3626 13.692 253.5073 14.5103C253.6543 15.3286 253.8887 16.0056 254.2103 16.5414C254.5394 17.0772 254.9633 17.4766 255.4818 17.7397C255.9979 18.0027 256.6262 18.1342 257.3667 18.1342C258.2144 18.1342 258.9199 18.0027 259.4834 17.7397C260.0493 17.4669 260.4832 17.0578 260.7848 16.5122C261.0865 15.9667 261.2635 15.2799 261.3109 14.4518Z"></path><path fill="white" stroke="none" fill-opacity="1" stroke-width="1" stroke-opacity="1" id="tSvg130d9fe959d" title="Path 14" d="M282.9666 8.8698C282.9666 10.0973 282.9666 11.3247 282.9666 12.5522C279.2942 12.5522 275.6217 12.5522 271.9493 12.5522C271.9493 11.3247 271.9493 10.0973 271.9493 8.8698C275.6217 8.8698 279.2942 8.8698 282.9666 8.8698ZM273.4551 0.3069C273.4551 7.3988 273.4551 14.4908 273.4551 21.5828C271.867 21.5828 270.2788 21.5828 268.6907 21.5828C268.6907 14.4908 268.6907 7.3988 268.6907 0.3069C270.2788 0.3069 271.867 0.3069 273.4551 0.3069ZM286.2551 0.3069C286.2551 7.3988 286.2551 14.4908 286.2551 21.5828C284.6719 21.5828 283.0888 21.5828 281.5056 21.5828C281.5056 14.4908 281.5056 7.3988 281.5056 0.3069C283.0888 0.3069 284.6719 0.3069 286.2551 0.3069Z"></path><path fill="white" stroke="none" fill-opacity="1" stroke-width="1" stroke-opacity="1" id="tSvg39bcf23312" title="Path 15" d="M304.2583 17.9004C304.2583 19.1278 304.2583 20.3553 304.2583 21.5828C300.4828 21.5828 296.7073 21.5828 292.9318 21.5828C292.9318 20.3553 292.9318 19.1278 292.9318 17.9004C296.7073 17.9004 300.4828 17.9004 304.2583 17.9004ZM294.5549 0.3069C294.5549 7.3988 294.5549 14.4908 294.5549 21.5828C292.9667 21.5828 291.3786 21.5828 289.7904 21.5828C289.7904 14.4908 289.7904 7.3988 289.7904 0.3069C291.3786 0.3069 292.9667 0.3069 294.5549 0.3069ZM302.7973 8.8698C302.7973 10.0583 302.7973 11.2468 302.7973 12.4353C299.5088 12.4353 296.2203 12.4353 292.9318 12.4353C292.9318 11.2468 292.9318 10.0583 292.9318 8.8698C296.2203 8.8698 299.5088 8.8698 302.7973 8.8698ZM304.2708 0.3069C304.2708 1.5392 304.2708 2.7715 304.2708 4.0038C300.4911 4.0038 296.7115 4.0038 292.9318 4.0038C292.9318 2.7715 292.9318 1.5392 292.9318 0.3069C296.7115 0.3069 300.4911 0.3069 304.2708 0.3069Z"></path><path fill="white" stroke="none" fill-opacity="1" stroke-width="1" stroke-opacity="1" id="tSvg1560c15a9f4" title="Path 16" d="M320.7556 0.3069C320.7556 1.5392 320.7556 2.7715 320.7556 4.0038C317.6184 4.0038 314.4812 4.0038 311.3439 4.0038C311.3439 9.8635 311.3439 15.7231 311.3439 21.5828C309.7607 21.5828 308.1776 21.5828 306.5944 21.5828C306.5944 14.4908 306.5944 7.3988 306.5944 0.3069C311.3148 0.3069 316.0352 0.3069 320.7556 0.3069Z"></path><path fill="white" stroke="none" fill-opacity="1" stroke-width="1" stroke-opacity="1" id="tSvg93fe3c7c9c" title="Path 17" d="M329.1427 4.3546C327.311 10.0973 325.4794 15.84 323.6477 21.5828C321.9532 21.5828 320.2587 21.5828 318.5641 21.5828C321.1895 14.4908 323.8148 7.3988 326.4401 0.3069C327.5113 0.3069 328.5825 0.3069 329.6538 0.3069C329.4834 1.6561 329.313 3.0053 329.1427 4.3546ZM333.7027 21.5828C331.8661 15.84 330.0294 10.0973 328.1928 4.3546C328.0025 3.0053 327.8122 1.6561 327.6218 0.3069C328.708 0.3069 329.7942 0.3069 330.8804 0.3069C333.5157 7.3988 336.151 14.4908 338.7863 21.5828C337.0918 21.5828 335.3972 21.5828 333.7027 21.5828ZM333.4683 13.6627C333.4683 14.8902 333.4683 16.1177 333.4683 17.3451C329.771 17.3451 326.0736 17.3451 322.3762 17.3451C322.3762 16.1177 322.3762 14.8902 322.3762 13.6627C326.0736 13.6627 329.771 13.6627 333.4683 13.6627Z"></path><path fill="white" stroke="none" fill-opacity="1" stroke-width="1" stroke-opacity="1" id="tSvg51c34c9a8d" title="Path 18" d="M14.3002 44.7816C14.3002 46.0091 14.3002 47.2366 14.3002 48.4641C10.6276 48.4641 6.955 48.4641 3.2823 48.4641C3.2823 47.2366 3.2823 46.0091 3.2823 44.7816C6.955 44.7816 10.6276 44.7816 14.3002 44.7816ZM4.7874 36.2186C4.7874 43.3106 4.7874 50.4026 4.7874 57.4946C3.1995 57.4946 1.6116 57.4946 0.0237 57.4946C0.0237 50.4026 0.0237 43.3106 0.0237 36.2186C1.6116 36.2186 3.1995 36.2186 4.7874 36.2186ZM17.588 36.2186C17.588 43.3106 17.588 50.4026 17.588 57.4946C16.005 57.4946 14.422 57.4946 12.8389 57.4946C12.8389 50.4026 12.8389 43.3106 12.8389 36.2186C14.422 36.2186 16.005 36.2186 17.588 36.2186Z"></path><path fill="white" stroke="none" fill-opacity="1" stroke-width="1" stroke-opacity="1" id="tSvg130cdb80310" title="Path 19" d="M30.2278 40.2665C28.3964 46.0092 26.565 51.7519 24.7336 57.4946C23.0385 57.4946 21.3435 57.4946 19.6484 57.4946C22.2738 50.4026 24.8993 43.3106 27.5247 36.2186C28.5963 36.2186 29.6678 36.2186 30.7394 36.2186C30.5689 37.5679 30.3983 38.9172 30.2278 40.2665ZM34.7871 57.4946C32.9507 51.7519 31.1144 46.0092 29.2781 40.2665C29.0882 38.9172 28.8982 37.5679 28.7082 36.2186C29.7944 36.2186 30.8806 36.2186 31.9668 36.2186C34.6019 43.3106 37.237 50.4026 39.8721 57.4946C38.1771 57.4946 36.4821 57.4946 34.7871 57.4946ZM34.5532 49.5745C34.5532 50.802 34.5532 52.0295 34.5532 53.2569C30.8562 53.2569 27.1593 53.2569 23.4623 53.2569C23.4623 52.0295 23.4623 50.802 23.4623 49.5745C27.1593 49.5745 30.8562 49.5745 34.5532 49.5745Z"></path><path fill="#ec9701" stroke="none" fill-opacity="1" stroke-width="1" stroke-opacity="1" id="tSvg429702bb62" title="Path 20" d="M57.188 50.1153C55.3712 50.1104 53.5544 50.1055 51.7376 50.1006C51.952 48.8683 52.1663 47.636 52.3806 46.4037C54.0367 46.4085 55.6927 46.4133 57.3488 46.4182C58.0307 46.4182 58.6542 46.2965 59.2192 46.0529C59.7844 45.8093 60.2471 45.4538 60.6074 44.9863C60.9776 44.5186 61.2115 43.9342 61.3089 43.2326C61.4062 42.6482 61.382 42.1125 61.2359 41.6253C61.0993 41.1384 60.8412 40.7437 60.4613 40.4418C60.0813 40.1299 59.5747 39.9596 58.9417 39.9302C57.6947 39.9254 56.4477 39.9205 55.2007 39.9157C54.1827 45.7753 53.1647 51.635 52.1468 57.4946C50.6027 57.4946 49.0586 57.4946 47.5145 57.4946C48.7419 50.4026 49.9694 43.3106 51.1969 36.2186C53.8272 36.2235 56.4575 36.2284 59.0878 36.2333C60.4613 36.2625 61.6887 36.5597 62.7702 37.1246C63.8612 37.6898 64.6989 38.4836 65.2836 39.5066C65.8777 40.5295 66.1163 41.7617 65.9994 43.2035C65.8729 44.7719 65.3808 46.0676 64.5236 47.0906C63.676 48.1133 62.6044 48.8732 61.3089 49.3701C60.0132 49.8667 58.6395 50.1153 57.188 50.1153Z"></path><path fill="#ec9701" stroke="none" fill-opacity="1" stroke-width="1" stroke-opacity="1" id="tSvg12b398e7ded" title="Path 21" d="M75.3662 40.5001C72.6336 46.1649 69.901 51.8298 67.1684 57.4946C65.4587 57.4946 63.7491 57.4946 62.0394 57.4946C65.8193 50.4026 69.5991 43.3106 73.3789 36.2186C74.4651 36.2186 75.5513 36.2186 76.6375 36.2186C76.2137 37.6458 75.79 39.0729 75.3662 40.5001ZM76.8858 57.4946C76.0919 51.6739 75.298 45.8533 74.5041 40.0327C74.5528 38.7613 74.6015 37.4899 74.6502 36.2186C75.673 36.2186 76.6959 36.2186 77.7188 36.2186C79.0436 43.3106 80.3685 50.4026 81.6934 57.4946C80.0909 57.4946 78.4883 57.4946 76.8858 57.4946ZM77.9965 49.5745C77.7773 50.802 77.558 52.0295 77.3388 53.2569C73.7441 53.2569 70.1495 53.2569 66.5548 53.2569C66.774 52.0295 66.9931 50.802 67.2123 49.5745C70.807 49.5745 74.4018 49.5745 77.9965 49.5745Z"></path><path fill="#ec9701" stroke="none" fill-opacity="1" stroke-width="1" stroke-opacity="1" id="tSvg12b70d647ee" title="Path 22" d="M93.5295 47.3242C92.3166 47.3194 91.1038 47.3145 89.8909 47.3097C90.0322 46.4914 90.1735 45.673 90.3148 44.8547C91.1039 44.8596 91.893 44.8645 92.682 44.8694C93.3056 44.8597 93.8656 44.7475 94.3624 44.5333C94.8691 44.3189 95.2832 43.9975 95.6045 43.5687C95.9356 43.1401 96.1453 42.6093 96.2328 41.9761C96.3011 41.4306 96.2231 40.9873 95.999 40.6462C95.7848 40.2957 95.4682 40.0327 95.0493 39.8571C94.6402 39.6819 94.1919 39.5894 93.705 39.5796C93.1789 39.5796 92.682 39.6674 92.2143 39.8427C91.7566 40.0179 91.3669 40.286 91.0455 40.6462C90.7239 41.0067 90.5095 41.4548 90.4025 41.9908C88.8584 41.9956 87.3143 42.0004 85.7702 42.0053C85.8385 40.9726 86.121 40.0715 86.6179 39.3019C87.1145 38.5323 87.7575 37.8992 88.5466 37.4024C89.3357 36.8957 90.1979 36.5208 91.133 36.2772C92.0682 36.0336 93.0084 35.9167 93.9533 35.9264C94.8788 35.9458 95.7701 36.0678 96.6275 36.2919C97.4944 36.5158 98.264 36.8713 98.9362 37.3585C99.6083 37.8359 100.1247 38.4447 100.4852 39.185C100.8554 39.9254 101.0063 40.8265 100.9382 41.8883C100.8796 42.8138 100.6216 43.6176 100.1636 44.2995C99.7058 44.9814 99.1164 45.5463 98.3957 45.9946C97.6746 46.4426 96.8905 46.7787 96.0428 47.0028C95.1954 47.217 94.3577 47.3242 93.5295 47.3242ZM90.1248 46.009C91.1672 46.0139 92.2096 46.0188 93.252 46.0237C94.0994 46.0432 94.9129 46.1551 95.6923 46.3598C96.4814 46.5645 97.1777 46.8809 97.7818 47.3097C98.3857 47.7383 98.8484 48.2935 99.17 48.9754C99.5011 49.6476 99.6375 50.4611 99.5792 51.4157C99.5109 52.5556 99.2042 53.5297 98.6584 54.3382C98.1129 55.1468 97.4116 55.8092 96.5544 56.3255C95.7068 56.8419 94.7766 57.2169 93.7633 57.4507C92.7598 57.6846 91.7566 57.7965 90.7531 57.7868C89.7984 57.7673 88.8877 57.6262 88.0206 57.3632C87.1634 57.1002 86.4035 56.7152 85.7411 56.2086C85.0786 55.6923 84.5575 55.0495 84.1776 54.2799C83.8073 53.5005 83.6271 52.5995 83.6368 51.5765C85.176 51.5765 86.7152 51.5765 88.2544 51.5765C88.2447 52.1221 88.3566 52.5798 88.5905 52.95C88.8341 53.3203 89.1604 53.6027 89.5696 53.7977C89.9884 53.9827 90.4609 54.0849 90.9869 54.1044C91.5713 54.1143 92.151 54.0216 92.7259 53.8269C93.3103 53.6222 93.8072 53.3155 94.2163 52.9062C94.6352 52.497 94.8935 51.971 94.9907 51.3282C95.059 50.8702 95.0541 50.4611 94.9763 50.1006C94.908 49.7403 94.7668 49.4431 94.5524 49.2093C94.3477 48.9657 94.075 48.7807 93.7342 48.654C93.4028 48.5274 93.0084 48.4543 92.5504 48.4349C91.6006 48.43 90.6508 48.4251 89.701 48.4202C89.8422 47.6165 89.9835 46.8128 90.1248 46.009Z"></path><path fill="#ec9701" stroke="none" fill-opacity="1" stroke-width="1" stroke-opacity="1" id="tSvg75a19a1cc8" title="Path 23" d="M117.6549 44.7816C117.4406 46.0091 117.2263 47.2366 117.0119 48.4641C113.4416 48.4641 109.8713 48.4641 106.301 48.4641C106.5153 47.2366 106.7297 46.0091 106.944 44.7816C110.5143 44.7816 114.0846 44.7816 117.6549 44.7816ZM109.9101 36.2186C108.6778 43.3106 107.4455 50.4026 106.2133 57.4946C104.6692 57.4946 103.1252 57.4946 101.5812 57.4946C102.8086 50.4026 104.036 43.3106 105.2634 36.2186C106.8123 36.2186 108.3612 36.2186 109.9101 36.2186ZM122.3309 36.2186C121.0986 43.3106 119.8663 50.4026 118.634 57.4946C117.0948 57.4946 115.5556 57.4946 114.0164 57.4946C115.2439 50.4026 116.4713 43.3106 117.6988 36.2186C119.2428 36.2186 120.7869 36.2186 122.3309 36.2186Z"></path><path fill="#ec9701" stroke="none" fill-opacity="1" stroke-width="1" stroke-opacity="1" id="tSvg70bd13b877" title="Path 24" d="M127.3723 43.7587C128.8336 43.7636 130.2948 43.7685 131.7561 43.7734C133.0809 43.8026 134.3036 44.0706 135.4238 44.5772C136.5539 45.0738 137.4403 45.8143 138.0833 46.7981C138.7262 47.7725 138.994 48.9851 138.8871 50.4367C138.7896 51.6154 138.4729 52.6481 137.9372 53.5347C137.4111 54.421 136.7242 55.1615 135.8768 55.7556C135.0391 56.3403 134.1039 56.7786 133.0712 57.0708C132.0386 57.3632 130.9717 57.5043 129.871 57.4946C127.2651 57.4946 124.6593 57.4946 122.0534 57.4946C123.2808 50.4026 124.5082 43.3106 125.7356 36.2186C127.2894 36.2186 128.8432 36.2186 130.397 36.2186C129.379 42.0831 128.361 47.9476 127.3429 53.8122C128.2392 53.8171 129.1355 53.822 130.0318 53.8269C130.7428 53.8269 131.3956 53.6905 131.9899 53.4178C132.5938 53.145 133.0954 52.7553 133.4948 52.2487C133.9042 51.7421 134.1622 51.1285 134.2694 50.4075C134.357 49.784 134.2986 49.2579 134.0939 48.8293C133.8895 48.4007 133.5729 48.0694 133.1443 47.8358C132.7157 47.6019 132.2041 47.4753 131.61 47.4558C129.9831 47.4509 128.3562 47.446 126.7293 47.4411C126.9437 46.2136 127.158 44.9862 127.3723 43.7587ZM147.6398 36.2186C146.4124 43.3106 145.1849 50.4026 143.9574 57.4946C142.4134 57.4946 140.8694 57.4946 139.3254 57.4946C140.5576 50.4026 141.7899 43.3106 143.0222 36.2186C144.5614 36.2186 146.1006 36.2186 147.6398 36.2186Z"></path><path fill="#ec9701" stroke="none" fill-opacity="1" stroke-width="1" stroke-opacity="1" id="tSvg3c9a865244" title="Path 25" d="M155.0338 36.2186C155.8619 38.6248 156.69 41.0311 157.518 43.4373C159.101 41.0311 160.684 38.6248 162.267 36.2186C164.1033 36.2186 165.9397 36.2186 167.776 36.2186C165.2188 39.8036 162.6616 43.3886 160.1045 46.9736C161.5316 50.4806 162.9588 53.9876 164.386 57.4946C162.6763 57.4946 160.9665 57.4946 159.2568 57.4946C158.3995 55.0446 157.5423 52.5945 156.6851 50.1445C155.0582 52.5945 153.4313 55.0446 151.8044 57.4946C149.9487 57.4946 148.0929 57.4946 146.2372 57.4946C148.8626 53.8512 151.488 50.2079 154.1134 46.5645C152.7203 43.1159 151.3272 39.6672 149.9341 36.2186C151.634 36.2186 153.3339 36.2186 155.0338 36.2186Z"></path><path fill="white" stroke="none" fill-opacity="1" stroke-width="1" stroke-opacity="1" id="tSvgc6015da012" title="Path 26" d="M184.3466 36.2186C184.3466 43.3106 184.3466 50.4026 184.3466 57.4946C182.7636 57.4946 181.1806 57.4946 179.5976 57.4946C179.5976 50.4026 179.5976 43.3106 179.5976 36.2186C181.1806 36.2186 182.7636 36.2186 184.3466 36.2186ZM190.8201 36.2186C190.8201 37.451 190.8201 38.6833 190.8201 39.9157C184.9653 39.9157 179.1105 39.9157 173.2557 39.9157C173.2557 38.6833 173.2557 37.451 173.2557 36.2186C179.1105 36.2186 184.9653 36.2186 190.8201 36.2186Z"></path><path fill="white" stroke="none" fill-opacity="1" stroke-width="1" stroke-opacity="1" id="tSvg58d79e2d9e" title="Path 27" d="M207.6391 53.8122C207.6391 55.0396 207.6391 56.2671 207.6391 57.4946C203.8642 57.4946 200.0892 57.4946 196.3143 57.4946C196.3143 56.2671 196.3143 55.0396 196.3143 53.8122C200.0892 53.8122 203.8642 53.8122 207.6391 53.8122ZM197.9364 36.2186C197.9364 43.3106 197.9364 50.4026 197.9364 57.4946C196.3485 57.4946 194.7606 57.4946 193.1727 57.4946C193.1727 50.4026 193.1727 43.3106 193.1727 36.2186C194.7606 36.2186 196.3485 36.2186 197.9364 36.2186ZM206.1778 44.7816C206.1778 45.9701 206.1778 47.1586 206.1778 48.3471C202.89 48.3471 199.6022 48.3471 196.3143 48.3471C196.3143 47.1586 196.3143 45.9701 196.3143 44.7816C199.6022 44.7816 202.89 44.7816 206.1778 44.7816ZM207.6538 36.2186C207.6538 37.451 207.6538 38.6833 207.6538 39.9157C203.874 39.9157 200.0941 39.9157 196.3143 39.9157C196.3143 38.6833 196.3143 37.451 196.3143 36.2186C200.0941 36.2186 203.874 36.2186 207.6538 36.2186Z"></path><path fill="white" stroke="none" fill-opacity="1" stroke-width="1" stroke-opacity="1" id="tSvg186a37258f5" title="Path 28" d="M218.3647 50.1006C216.582 50.1006 214.7993 50.1006 213.0166 50.1006C213.0166 48.8683 213.0166 47.636 213.0166 46.4037C214.7993 46.4037 216.582 46.4037 218.3647 46.4037C219.1538 46.4037 219.7871 46.2721 220.2643 46.009C220.7514 45.746 221.107 45.3857 221.3311 44.9277C221.565 44.4603 221.6819 43.9342 221.6819 43.3496C221.6819 42.7457 221.565 42.1855 221.3311 41.6692C221.107 41.1431 220.7514 40.7193 220.2643 40.3979C219.7871 40.0765 219.1538 39.9157 218.3647 39.9157C217.1568 39.9157 215.9488 39.9157 214.7409 39.9157C214.7409 45.7753 214.7409 51.635 214.7409 57.4946C213.153 57.4946 211.5651 57.4946 209.9772 57.4946C209.9772 50.4026 209.9772 43.3106 209.9772 36.2186C212.773 36.2186 215.5689 36.2186 218.3647 36.2186C220.0598 36.2186 221.5113 36.5255 222.7193 37.1393C223.937 37.7531 224.8674 38.5956 225.5102 39.6674C226.1629 40.7292 226.4892 41.9469 226.4892 43.3204C226.4892 44.6939 226.1629 45.8874 225.5102 46.9006C224.8674 47.9136 223.937 48.7027 222.7193 49.2676C221.5113 49.8231 220.0598 50.1006 218.3647 50.1006Z"></path><path fill="white" stroke="none" fill-opacity="1" stroke-width="1" stroke-opacity="1" id="tSvg17761f7aa2f" title="Path 29" d="M237.7701 50.1006C235.9874 50.1006 234.2047 50.1006 232.422 50.1006C232.422 48.8683 232.422 47.636 232.422 46.4037C234.2047 46.4037 235.9874 46.4037 237.7701 46.4037C238.5592 46.4037 239.1924 46.2721 239.6699 46.009C240.1571 45.746 240.5126 45.3857 240.7365 44.9277C240.9703 44.4603 241.0873 43.9342 241.0873 43.3496C241.0873 42.7457 240.9703 42.1855 240.7365 41.6692C240.5126 41.1431 240.1571 40.7193 239.6699 40.3979C239.1924 40.0765 238.5592 39.9157 237.7701 39.9157C236.5621 39.9157 235.3542 39.9157 234.1463 39.9157C234.1463 45.7753 234.1463 51.635 234.1463 57.4946C232.5584 57.4946 230.9705 57.4946 229.3825 57.4946C229.3825 50.4026 229.3825 43.3106 229.3825 36.2186C232.1784 36.2186 234.9742 36.2186 237.7701 36.2186C239.4652 36.2186 240.9167 36.5255 242.1247 37.1393C243.3426 37.7531 244.2728 38.5956 244.9158 39.6674C245.5685 40.7292 245.8948 41.9469 245.8948 43.3204C245.8948 44.6939 245.5685 45.8874 244.9158 46.9006C244.2728 47.9136 243.3426 48.7027 242.1247 49.2676C240.9167 49.8231 239.4652 50.1006 237.7701 50.1006Z"></path><path fill="white" stroke="none" fill-opacity="1" stroke-width="1" stroke-opacity="1" id="tSvgfed77d82e8" title="Path 30" d="M253.3178 50.1298C256.0212 45.4927 258.7246 40.8556 261.4281 36.2186C263.0112 36.2186 264.5944 36.2186 266.1776 36.2186C266.1776 43.3106 266.1776 50.4026 266.1776 57.4946C264.5944 57.4946 263.0112 57.4946 261.4281 57.4946C261.4281 52.8624 261.4281 48.2303 261.4281 43.5981C258.7246 48.2303 256.0212 52.8624 253.3178 57.4946C251.7349 57.4946 250.1519 57.4946 248.569 57.4946C248.569 50.4026 248.569 43.3106 248.569 36.2186C250.1519 36.2186 251.7349 36.2186 253.3178 36.2186C253.3178 40.8556 253.3178 45.4927 253.3178 50.1298Z"></path><path fill="white" stroke="none" fill-opacity="1" stroke-width="1" stroke-opacity="1" id="tSvg948165970d" title="Path 31" d="M279.0947 36.2186C279.0947 43.3106 279.0947 50.4026 279.0947 57.4946C277.5115 57.4946 275.9284 57.4946 274.3452 57.4946C274.3452 50.4026 274.3452 43.3106 274.3452 36.2186C275.9284 36.2186 277.5115 36.2186 279.0947 36.2186ZM285.567 36.2186C285.567 37.451 285.567 38.6833 285.567 39.9157C279.7122 39.9157 273.8574 39.9157 268.0026 39.9157C268.0026 38.6833 268.0026 37.451 268.0026 36.2186C273.8574 36.2186 279.7122 36.2186 285.567 36.2186Z"></path><path fill="white" stroke="none" fill-opacity="1" stroke-width="1" stroke-opacity="1" id="tSvg73e43235d5" title="Path 32" d="M305.2506 46.389C305.2506 46.7056 305.2506 47.0223 305.2506 47.3389C305.2506 48.956 305.0262 50.4075 304.5799 51.6935C304.1411 52.9792 303.5128 54.0752 302.6951 54.9812C301.8848 55.8872 300.9199 56.5838 299.8005 57.0708C298.691 57.5482 297.4569 57.7868 296.1031 57.7868C294.7493 57.7868 293.5127 57.5482 292.3908 57.0708C291.2714 56.5838 290.2965 55.8872 289.4688 54.9812C288.651 54.0752 288.0178 52.9792 287.569 51.6935C287.1227 50.4075 286.8983 48.956 286.8983 47.3389C286.8983 47.0223 286.8983 46.7056 286.8983 46.389C286.8983 44.7719 287.1227 43.3204 287.569 42.0344C288.0178 40.739 288.6461 39.638 289.4538 38.732C290.2741 37.8262 291.2414 37.1343 292.3634 36.6571C293.4828 36.17 294.7194 35.9264 296.0732 35.9264C297.4295 35.9264 298.6661 36.17 299.7856 36.6571C300.9075 37.1343 301.8698 37.8262 302.6801 38.732C303.4979 39.638 304.1312 40.739 304.5799 42.0344C305.0262 43.3204 305.2506 44.7719 305.2506 46.389ZM300.4438 47.3389C300.4438 47.0125 300.4438 46.6862 300.4438 46.3598C300.4438 45.2785 300.3465 44.3239 300.152 43.4957C299.9576 42.658 299.6734 41.9566 299.3044 41.3917C298.9329 40.8265 298.4766 40.4029 297.9306 40.1202C297.3846 39.828 296.7663 39.6819 296.0732 39.6819C295.3527 39.6819 294.7244 39.828 294.1884 40.1202C293.6523 40.4029 293.2011 40.8265 292.8296 41.3917C292.4706 41.9566 292.1913 42.658 291.9969 43.4957C291.8124 44.3239 291.7201 45.2785 291.7201 46.3598C291.7201 46.6862 291.7201 47.0125 291.7201 47.3389C291.7201 48.4105 291.8124 49.3651 291.9969 50.2031C292.1913 51.031 292.4756 51.7324 292.8446 52.307C293.216 52.882 293.6673 53.3155 294.2033 53.6077C294.7493 53.8999 295.3826 54.046 296.1031 54.046C296.7962 54.046 297.4096 53.8999 297.9456 53.6077C298.4891 53.3155 298.9478 52.882 299.3193 52.307C299.6883 51.7324 299.9651 51.031 300.152 50.2031C300.3465 49.3651 300.4438 48.4105 300.4438 47.3389Z"></path><path fill="white" stroke="none" fill-opacity="1" stroke-width="1" stroke-opacity="1" id="tSvg14732bb7d0f" title="Path 33" d="M316.5621 50.1006C314.7787 50.1006 312.9952 50.1006 311.2118 50.1006C311.2118 48.8683 311.2118 47.636 311.2118 46.4037C312.9952 46.4037 314.7787 46.4037 316.5621 46.4037C317.35 46.4037 317.9832 46.2721 318.4619 46.009C318.9481 45.746 319.3046 45.3857 319.5265 44.9277C319.7609 44.4603 319.878 43.9342 319.878 43.3496C319.878 42.7457 319.7609 42.1855 319.5265 41.6692C319.3046 41.1431 318.9481 40.7193 318.4619 40.3979C317.9832 40.0765 317.35 39.9157 316.5621 39.9157C315.3538 39.9157 314.1454 39.9157 312.937 39.9157C312.937 45.7753 312.937 51.635 312.937 57.4946C311.3489 57.4946 309.7607 57.4946 308.1726 57.4946C308.1726 50.4026 308.1726 43.3106 308.1726 36.2186C310.9691 36.2186 313.7656 36.2186 316.5621 36.2186C318.2575 36.2186 319.7085 36.5255 320.9152 37.1393C322.1344 37.7531 323.0643 38.5956 323.7076 39.6674C324.3583 40.7292 324.6849 41.9469 324.6849 43.3204C324.6849 44.6939 324.3583 45.8874 323.7076 46.9006C323.0643 47.9136 322.1344 48.7027 320.9152 49.2676C319.7085 49.8231 318.2575 50.1006 316.5621 50.1006Z"></path><path fill="white" stroke="none" fill-opacity="1" stroke-width="1" stroke-opacity="1" id="tSvg17dcf591752" title="Path 34" d="M332.1096 50.1298C334.813 45.4927 337.5164 40.8556 340.2199 36.2186C341.8022 36.2186 343.3845 36.2186 344.9669 36.2186C344.9669 43.3106 344.9669 50.4026 344.9669 57.4946C343.3845 57.4946 341.8022 57.4946 340.2199 57.4946C340.2199 52.8624 340.2199 48.2303 340.2199 43.5981C337.5164 48.2303 334.813 52.8624 332.1096 57.4946C330.5264 57.4946 328.9432 57.4946 327.3601 57.4946C327.3601 50.4026 327.3601 43.3106 327.3601 36.2186C328.9432 36.2186 330.5264 36.2186 332.1096 36.2186C332.1096 40.8556 332.1096 45.4927 332.1096 50.1298Z"></path><path fill="white" stroke="none" fill-opacity="1" stroke-width="1" stroke-opacity="1" id="tSvgb6b29dde43" title="Path 35" d="M359.6093 49.8961C357.7003 49.8961 355.7914 49.8961 353.8824 49.8961C353.3855 49.6915 352.8885 49.4869 352.3915 49.2823C350.6862 48.7465 349.3848 47.9477 348.4897 46.8859C347.5922 45.8143 347.1459 44.4553 347.1459 42.809C347.1459 41.3575 347.4675 40.1446 348.1108 39.1705C348.7615 38.1962 349.6839 37.4607 350.8707 36.9641C352.0599 36.4672 353.4686 36.2186 355.0941 36.2186C357.6172 36.2186 360.1403 36.2186 362.6634 36.2186C362.6634 43.3106 362.6634 50.4026 362.6634 57.4946C361.0711 57.4946 359.4788 57.4946 357.8865 57.4946C357.8865 51.635 357.8865 45.7753 357.8865 39.9157C356.9557 39.9157 356.0249 39.9157 355.0941 39.9157C353.9847 39.9157 353.1694 40.1982 352.6533 40.7632C352.1472 41.3284 351.8954 42.1369 351.8954 43.189C351.8954 43.9681 352.0101 44.6014 352.2444 45.0886C352.4888 45.566 352.8453 45.9165 353.3115 46.1407C353.7902 46.3548 354.3786 46.462 355.0792 46.462C356.5842 46.462 358.0893 46.462 359.5943 46.462C359.5993 47.6067 359.6043 48.7514 359.6093 49.8961ZM355.5329 48.0549C353.9938 51.2015 352.4547 54.348 350.9156 57.4946C349.1911 57.4946 347.4667 57.4946 345.7422 57.4946C347.2764 54.348 348.8105 51.2015 350.3446 48.0549C352.0741 48.0549 353.8035 48.0549 355.5329 48.0549Z"></path><path fill="white" stroke="none" fill-opacity="1" stroke-width="1" stroke-opacity="1" id="tSvgdb3166a465" title="Path 36" d="M369.8961 36.2186C371.1435 38.6346 372.3909 41.0505 373.6384 43.4665C374.885 41.0505 376.1315 38.6346 377.3781 36.2186C379.1907 36.2186 381.0032 36.2186 382.8157 36.2186C380.7988 39.7354 378.7818 43.2522 376.7648 46.769C378.835 50.3442 380.9051 53.9194 382.9753 57.4946C381.1486 57.4946 379.322 57.4946 377.4953 57.4946C376.2097 55.0348 374.924 52.5751 373.6384 50.1153C372.3569 52.5751 371.0754 55.0348 369.7939 57.4946C367.9631 57.4946 366.1322 57.4946 364.3014 57.4946C366.3757 53.9194 368.4501 50.3442 370.5244 46.769C368.5033 43.2522 366.4821 39.7354 364.461 36.2186C366.2727 36.2186 368.0844 36.2186 369.8961 36.2186Z"></path></svg> 